<svg width="61" height="39" viewBox="0 0 61 39" fill="none" xmlns="http://www.w3.org/2000/svg">
<mask id="path-1-outside-1_1_2338" maskUnits="userSpaceOnUse" x="-1" y="-0.956909" width="63" height="41" fill="black">
<rect fill="white" x="-1" y="-0.956909" width="63" height="41"/>
<path d="M15.7 38.6431C12.7333 38.6431 10.1333 37.8431 7.9 36.2431C5.66667 34.6431 3.91667 32.3931 2.65 29.4931C1.41667 26.5931 0.8 23.2264 0.8 19.3931C0.8 15.5264 1.41667 12.1598 2.65 9.29309C3.88333 6.42642 5.61667 4.19309 7.85 2.59309C10.0833 0.993089 12.6833 0.193089 15.65 0.193089C18.6833 0.193089 21.3 0.993089 23.5 2.59309C25.7333 4.19309 27.4833 6.44309 28.75 9.34309C30.0167 12.2098 30.65 15.5598 30.65 19.3931C30.65 23.2264 30.0167 26.5931 28.75 29.4931C27.5167 32.3598 25.7833 34.6098 23.55 36.2431C21.3167 37.8431 18.7 38.6431 15.7 38.6431ZM15.75 32.4431C17.45 32.4431 18.9 31.9264 20.1 30.8931C21.3 29.8264 22.2167 28.3264 22.85 26.3931C23.5167 24.4264 23.85 22.0931 23.85 19.3931C23.85 16.6931 23.5167 14.3764 22.85 12.4431C22.2167 10.4764 21.2833 8.97642 20.05 7.94309C18.85 6.90976 17.3833 6.39309 15.65 6.39309C13.9833 6.39309 12.55 6.90976 11.35 7.94309C10.15 8.97642 9.21667 10.4764 8.55 12.4431C7.91667 14.3764 7.6 16.6931 7.6 19.3931C7.6 22.0598 7.91667 24.3764 8.55 26.3431C9.21667 28.2764 10.15 29.7764 11.35 30.8431C12.5833 31.9098 14.05 32.4431 15.75 32.4431ZM35.7004 38.0431V32.8931L45.8004 22.3431C47.8004 20.2431 49.3337 18.5764 50.4004 17.3431C51.5004 16.0764 52.2671 14.9931 52.7004 14.0931C53.1337 13.1931 53.3504 12.2764 53.3504 11.3431C53.3504 9.77642 52.8504 8.54309 51.8504 7.64309C50.8837 6.74309 49.6337 6.29309 48.1004 6.29309C46.5004 6.29309 45.1171 6.75975 43.9504 7.69309C42.7837 8.59309 41.9337 9.92642 41.4004 11.6931L35.4504 9.84309C35.8504 7.87642 36.6671 6.17642 37.9004 4.74309C39.1337 3.27642 40.6337 2.15976 42.4004 1.39309C44.2004 0.593089 46.1004 0.193089 48.1004 0.193089C50.5004 0.193089 52.6004 0.626423 54.4004 1.49309C56.2337 2.35976 57.6504 3.57642 58.6504 5.14309C59.6837 6.70976 60.2004 8.54309 60.2004 10.6431C60.2004 11.9764 59.9504 13.2931 59.4504 14.5931C58.9504 15.8931 58.2004 17.2264 57.2004 18.5931C56.2004 19.9264 54.9004 21.4264 53.3004 23.0931L44.5504 32.2931H60.7004V38.0431H35.7004Z"/>
</mask>
<path d="M7.9 36.2431L7.31762 37.056L7.9 36.2431ZM2.65 29.4931L1.72972 29.8845L1.7336 29.8934L2.65 29.4931ZM2.65 9.29309L1.73141 8.89788H1.73141L2.65 9.29309ZM7.85 2.59309L7.26762 1.78018L7.85 2.59309ZM23.5 2.59309L22.9118 3.40184L22.9176 3.406L23.5 2.59309ZM28.75 9.34309L27.8336 9.74336L27.8353 9.74726L28.75 9.34309ZM28.75 29.4931L27.8336 29.0928L27.8314 29.0979L28.75 29.4931ZM23.55 36.2431L24.1324 37.056L24.1403 37.0503L23.55 36.2431ZM20.1 30.8931L20.7525 31.6509L20.7585 31.6457L20.7644 31.6405L20.1 30.8931ZM22.85 26.3931L21.9029 26.072L21.8997 26.0818L22.85 26.3931ZM22.85 12.4431L21.8981 12.7496L21.9013 12.7594L21.9046 12.7691L22.85 12.4431ZM20.05 7.94309L19.3974 8.70093L19.4078 8.70961L20.05 7.94309ZM11.35 7.94309L10.6975 7.18532L10.6975 7.18532L11.35 7.94309ZM8.55 12.4431L7.60289 12.122L7.59969 12.1318L8.55 12.4431ZM8.55 26.3431L7.59814 26.6496L7.60128 26.6594L7.60463 26.6691L8.55 26.3431ZM11.35 30.8431L10.6856 31.5906L10.6958 31.5995L11.35 30.8431ZM15.7 37.6431C12.9246 37.6431 10.5321 36.8987 8.48239 35.4302L7.31762 37.056C9.73454 38.7875 12.542 39.6431 15.7 39.6431V37.6431ZM8.48239 35.4302C6.4166 33.9502 4.77207 31.8532 3.5664 29.0928L1.7336 29.8934C3.06126 32.933 4.91673 35.336 7.31762 37.056L8.48239 35.4302ZM3.57024 29.1017C2.39962 26.3492 1.8 23.1203 1.8 19.3931H-0.2C-0.2 23.3325 0.433718 26.837 1.72976 29.8845L3.57024 29.1017ZM1.8 19.3931C1.8 15.6308 2.40016 12.4041 3.56859 9.6883L1.73141 8.89788C0.43317 11.9154 -0.2 15.4221 -0.2 19.3931H1.8ZM3.56859 9.6883C4.73996 6.96565 6.36634 4.88615 8.43239 3.406L7.26762 1.78018C4.86699 3.50003 3.0267 5.8872 1.73141 8.89788L3.56859 9.6883ZM8.43239 3.406C10.4821 1.93753 12.8746 1.19309 15.65 1.19309V-0.806911C12.492 -0.806911 9.68454 0.0486488 7.26762 1.78018L8.43239 3.406ZM15.65 1.19309C18.4975 1.19309 20.9023 1.94032 22.9118 3.40182L24.0882 1.78435C21.6977 0.0458565 18.8692 -0.806911 15.65 -0.806911V1.19309ZM22.9176 3.406C24.9834 4.88596 26.6279 6.983 27.8336 9.74336L29.6664 8.94283C28.3387 5.90318 26.4833 3.50021 24.0824 1.78018L22.9176 3.406ZM27.8353 9.74726C29.0346 12.4615 29.65 15.6686 29.65 19.3931H31.65C31.65 15.4509 30.9987 11.958 29.6647 8.93893L27.8353 9.74726ZM29.65 19.3931C29.65 23.1171 29.0348 26.3428 27.8336 29.0928L29.6664 29.8934C30.9986 26.8434 31.65 23.3357 31.65 19.3931H29.65ZM27.8314 29.0979C26.6595 31.8218 25.031 33.9211 22.9597 35.4359L24.1403 37.0503C26.5357 35.2984 28.3738 32.8977 29.6686 29.8883L27.8314 29.0979ZM22.9676 35.4302C20.9198 36.8973 18.5113 37.6431 15.7 37.6431V39.6431C18.8887 39.6431 21.7135 38.7889 24.1324 37.056L22.9676 35.4302ZM15.75 33.4431C17.6705 33.4431 19.3571 32.8525 20.7525 31.6509L19.4475 30.1353C18.4429 31.0004 17.2296 31.4431 15.75 31.4431V33.4431ZM20.7644 31.6405C22.1275 30.4288 23.1264 28.7616 23.8003 26.7044L21.8997 26.0818C21.3069 27.8912 20.4725 29.224 19.4356 30.1457L20.7644 31.6405ZM23.7971 26.7141C24.5075 24.6183 24.85 22.1713 24.85 19.3931H22.85C22.85 22.0149 22.5258 24.2345 21.9029 26.0721L23.7971 26.7141ZM24.85 19.3931C24.85 16.6156 24.5077 14.1828 23.7954 12.1171L21.9046 12.7691C22.5256 14.57 22.85 16.7706 22.85 19.3931H24.85ZM23.8019 12.1366C23.1269 10.0408 22.1058 8.36096 20.6922 7.17657L19.4078 8.70961C20.4608 9.59189 21.3064 10.9121 21.8981 12.7496L23.8019 12.1366ZM20.7025 7.18532C19.3034 5.98051 17.5985 5.39309 15.65 5.39309V7.39309C17.1682 7.39309 18.3966 7.839 19.3975 8.70086L20.7025 7.18532ZM15.65 5.39309C13.7575 5.39309 12.0891 5.98702 10.6975 7.18532L12.0025 8.70086C13.0109 7.83249 14.2092 7.39309 15.65 7.39309V5.39309ZM10.6975 7.18532C9.32613 8.3662 8.30958 10.0374 7.60293 12.1221L9.49707 12.7641C10.1238 10.9154 10.9739 9.58664 12.0025 8.70086L10.6975 7.18532ZM7.59969 12.1318C6.92467 14.1924 6.6 16.6198 6.6 19.3931H8.6C8.6 16.7664 8.90866 14.5605 9.50031 12.7544L7.59969 12.1318ZM6.6 19.3931C6.6 22.1352 6.92519 24.5599 7.59814 26.6496L9.50186 26.0366C8.90814 24.1929 8.6 21.9843 8.6 19.3931H6.6ZM7.60463 26.6691C8.31224 28.7212 9.32686 30.3827 10.6856 31.5905L12.0144 30.0957C10.9731 29.1702 10.1211 27.8317 9.49537 26.0171L7.60463 26.6691ZM10.6958 31.5995C12.1192 32.8304 13.8209 33.4431 15.75 33.4431V31.4431C14.2791 31.4431 13.0475 30.9891 12.0042 30.0867L10.6958 31.5995ZM35.7004 38.0431H34.7004V39.0431H35.7004V38.0431ZM35.7004 32.8931L34.978 32.2016L34.7004 32.4916V32.8931H35.7004ZM45.8004 22.3431L46.5227 23.0346L46.5245 23.0327L45.8004 22.3431ZM50.4004 17.3431L49.6454 16.6874L49.644 16.6889L50.4004 17.3431ZM52.7004 14.0931L51.7994 13.6593V13.6593L52.7004 14.0931ZM51.8504 7.64309L51.169 8.37498L51.1752 8.38074L51.1814 8.38638L51.8504 7.64309ZM43.9504 7.69309L44.5612 8.48487L44.5682 8.47948L44.5751 8.47396L43.9504 7.69309ZM41.4004 11.6931L41.1035 12.648L42.0663 12.9474L42.3577 11.9821L41.4004 11.6931ZM35.4504 9.84309L34.4705 9.64378L34.2903 10.5296L35.1535 10.798L35.4504 9.84309ZM37.9004 4.74309L38.6585 5.39537L38.6658 5.38669L37.9004 4.74309ZM42.4004 1.39309L42.7985 2.31047L42.8065 2.3069L42.4004 1.39309ZM54.4004 1.49309L53.9666 2.39411L53.973 2.39716L54.4004 1.49309ZM58.6504 5.14309L57.8075 5.68112L57.8115 5.68743L57.8156 5.69368L58.6504 5.14309ZM57.2004 18.5931L58.0004 19.1931L58.0074 19.1836L57.2004 18.5931ZM53.3004 23.0931L52.579 22.4006L52.5758 22.4039L53.3004 23.0931ZM44.5504 32.2931L43.8258 31.6039L42.2192 33.2931H44.5504V32.2931ZM60.7004 32.2931H61.7004V31.2931H60.7004V32.2931ZM60.7004 38.0431V39.0431H61.7004V38.0431H60.7004ZM36.7004 38.0431V32.8931H34.7004V38.0431H36.7004ZM36.4227 33.5846L46.5227 23.0346L45.078 21.6516L34.978 32.2016L36.4227 33.5846ZM46.5245 23.0327C48.5285 20.9286 50.0746 19.2485 51.1568 17.9972L49.644 16.6889C48.5929 17.9044 47.0723 19.5576 45.0763 21.6534L46.5245 23.0327ZM51.1554 17.9988C52.28 16.7038 53.1122 15.543 53.6014 14.5269L51.7994 13.6593C51.4219 14.4432 50.7208 15.449 49.6454 16.6874L51.1554 17.9988ZM53.6014 14.5269C54.0952 13.5013 54.3504 12.437 54.3504 11.3431H52.3504C52.3504 12.1158 52.1722 12.8849 51.7994 13.6593L53.6014 14.5269ZM54.3504 11.3431C54.3504 9.54418 53.7654 8.02121 52.5194 6.8998L51.1814 8.38638C51.9354 9.06497 52.3504 10.0087 52.3504 11.3431H54.3504ZM52.5318 6.9112C51.3505 5.81135 49.8431 5.29309 48.1004 5.29309V7.29309C49.4244 7.29309 50.417 7.67482 51.169 8.37498L52.5318 6.9112ZM48.1004 5.29309C46.2906 5.29309 44.6827 5.82662 43.3257 6.91222L44.5751 8.47396C45.5514 7.69289 46.7102 7.29309 48.1004 7.29309V5.29309ZM43.3396 6.90131C41.9702 7.95766 41.0213 9.48863 40.4431 11.4041L42.3577 11.9821C42.8461 10.3642 43.5972 9.22852 44.5612 8.48487L43.3396 6.90131ZM41.6973 10.7382L35.7473 8.88818L35.1535 10.798L41.1035 12.648L41.6973 10.7382ZM36.4303 10.0424C36.7984 8.23256 37.5434 6.69115 38.6584 5.39533L37.1424 4.09085C35.7907 5.6617 34.9024 7.52028 34.4705 9.64378L36.4303 10.0424ZM38.6658 5.38669C39.799 4.03907 41.173 3.01582 42.7985 2.31043L42.0023 0.475744C40.0944 1.30369 38.4685 2.51377 37.135 4.09949L38.6658 5.38669ZM42.8065 2.3069C44.4767 1.56462 46.2381 1.19309 48.1004 1.19309V-0.806911C45.9627 -0.806911 43.9241 -0.37844 41.9943 0.479278L42.8065 2.3069ZM48.1004 1.19309C50.38 1.19309 52.3264 1.6044 53.9666 2.39409L54.8342 0.592089C52.8743 -0.351554 50.6208 -0.806911 48.1004 -0.806911V1.19309ZM53.973 2.39716C55.6522 3.19097 56.9179 4.28751 57.8075 5.68112L59.4933 4.60505C58.3829 2.86533 56.8152 1.52854 54.8278 0.589018L53.973 2.39716ZM57.8156 5.69368C58.7286 7.07792 59.2004 8.71473 59.2004 10.6431H61.2004C61.2004 8.37145 60.6388 6.34159 59.4852 4.59249L57.8156 5.69368ZM59.2004 10.6431C59.2004 11.8483 58.975 13.0435 58.517 14.2341L60.3837 14.9521C60.9258 13.5427 61.2004 12.1046 61.2004 10.6431H59.2004ZM58.517 14.2341C58.0547 15.4362 57.352 16.6924 56.3934 18.0026L58.0074 19.1836C59.0488 17.7604 59.8461 16.35 60.3837 14.9521L58.517 14.2341ZM56.4004 17.9931C55.4319 19.2843 54.1608 20.7529 52.579 22.4006L54.0218 23.7856C55.64 22.1 56.9688 20.5685 58.0004 19.1931L56.4004 17.9931ZM52.5758 22.4039L43.8258 31.6039L45.275 32.9823L54.025 23.7823L52.5758 22.4039ZM44.5504 33.2931H60.7004V31.2931H44.5504V33.2931ZM59.7004 32.2931V38.0431H61.7004V32.2931H59.7004ZM60.7004 37.0431H35.7004V39.0431H60.7004V37.0431Z" fill="#034833" mask="url(#path-1-outside-1_1_2338)"/>
</svg>
