<svg width="80" height="80" viewBox="0 0 80 80" fill="none" xmlns="http://www.w3.org/2000/svg">
<rect width="80" height="80" rx="40" fill="#83CD20"/>
<g clip-path="url(#clip0_1_1725)">
<path d="M54.1602 26.4648C55.8477 26.4648 57.2539 25.0938 57.2539 23.3711C57.2539 21.6484 55.8477 20.3125 54.1602 20.3125C52.4727 20.3125 51.0664 21.6836 51.0664 23.4062C51.0664 25.0938 52.4375 26.4648 54.1602 26.4648ZM54.1602 21.543C55.1797 21.543 56.0234 22.3867 56.0234 23.4062C56.0234 24.4258 55.1797 25.2695 54.1602 25.2695C53.1406 25.2695 52.2969 24.4258 52.2969 23.4062C52.2969 22.3867 53.1055 21.543 54.1602 21.543Z" fill="white"/>
<path d="M57.8517 33.6016C57.2892 32.4062 56.6212 31.2461 55.8478 30.1914C57.5353 29.0664 60.0314 26.8516 60.0314 23.4062C60.0314 20.1367 57.3946 17.5352 54.1603 17.5352C50.9259 17.5352 48.254 20.1367 48.254 23.4062V23.793C47.797 23.582 47.3399 23.3711 46.8829 23.1602C33.6642 17.8516 19.0392 27.4492 18.9689 42.0391C18.9337 53.2891 28.004 62.4297 39.254 62.4648C50.504 62.5 59.6446 53.4297 59.6798 42.1797C59.6798 42.1094 59.6798 42.0742 59.6798 42.0039C59.6798 39.1211 59.047 36.2383 57.8517 33.6016ZM54.1603 18.7305C56.7267 18.7305 58.8009 20.8047 58.836 23.4062C58.836 27.0977 55.1798 29.2773 54.1603 29.7695C53.1759 29.2422 49.4845 27.0977 49.4845 23.4062C49.4845 20.8047 51.5587 18.7305 54.1603 18.7305ZM53.879 31.0352C54.0548 31.1055 54.2306 31.1055 54.3712 31.0352C54.4064 31.0352 54.547 30.9648 54.7579 30.8242C55.3204 31.5977 55.8126 32.4062 56.2696 33.25H52.6134L50.1524 30.7891C50.0118 30.6484 49.8009 30.5781 49.5899 30.6133L42.3478 32.2305C42.0665 32.3008 41.8556 32.5469 41.8556 32.8281V34.3047C41.8556 34.6211 42.0665 34.8672 42.3829 34.9023L47.3751 35.6758L48.6056 38.0664C48.6759 38.207 48.8165 38.3477 48.9923 38.3828L52.1564 39.2617V41.0547L50.2579 43.0234C50.1524 43.1289 50.0821 43.3047 50.0821 43.4453V46.4336L46.6017 52.5156H44.6681V50.582C44.6681 50.4062 44.5978 50.2305 44.4571 50.125L41.7853 47.6992V44.8867C41.7853 44.6406 41.6095 44.3945 41.3985 44.3242L35.9142 42.3203V37.75L39.5001 33.8828C39.7462 33.6367 39.711 33.25 39.4649 33.0039L39.4298 32.9688L36.1603 30.4375L38.8321 26.6406H44.3165C44.4923 26.6406 44.6329 26.5703 44.7384 26.4648L46.7774 24.4258C47.3399 24.6719 47.9376 24.9531 48.5001 25.2695C49.6251 29.0664 53.7032 30.9297 53.879 31.0352ZM26.9845 27.4492L28.5314 30.6484L27.3009 31.2813C27.2306 31.3164 27.1954 31.3516 27.1251 31.3867L24.2071 34.375C24.0314 34.5508 23.9962 34.7969 24.0665 35.0078L24.4884 36.2031C24.0314 36.4844 23.5743 36.8711 23.2228 37.2578L20.7267 37.6797C21.6407 33.6719 23.8556 30.0859 26.9845 27.4492ZM27.5821 47.5234C26.5978 46.9961 22.9064 44.8516 22.9064 41.1602C22.9415 38.5938 25.0509 36.5195 27.6173 36.5547C30.1485 36.5898 32.2228 38.6289 32.2228 41.1602C32.2228 44.8516 28.5665 47.0313 27.5821 47.5234ZM20.2345 41.0195C20.2696 40.3164 20.3399 39.6484 20.4454 38.9453L22.2384 38.6289C21.8868 39.3672 21.6759 40.1758 21.6759 40.9844H20.2345V41.0195ZM27.3009 54.0625V56.9453C22.8712 53.3594 20.2696 47.9805 20.1993 42.25H21.7814C22.4493 46.5742 27.1251 48.6836 27.336 48.7891C27.5118 48.8594 27.6876 48.8594 27.8282 48.7891C28.3204 48.543 28.7774 48.2969 29.2345 47.9805L29.8673 48.6133V50.3008L29.0939 51.4609C28.9181 51.707 28.9884 52.0586 29.1993 52.2695L29.3751 52.4453L27.547 53.5352C27.4064 53.6406 27.3009 53.8164 27.3009 54.0625ZM39.3243 61.1992C35.4571 61.1992 31.6954 60.0391 28.5314 57.8594V54.4141L30.8165 53.043C31.0978 52.8672 31.2032 52.4805 31.0274 52.1992C30.9923 52.1289 30.9571 52.0938 30.8868 52.0586L30.4649 51.707L31.0274 50.8633C31.0978 50.7578 31.1329 50.6523 31.1329 50.5117V48.4023C31.1329 48.2266 31.0626 48.0859 30.9571 47.9805L30.2892 47.3125C31.836 46.082 33.5235 44.043 33.5235 41.2305C33.5235 37.9961 30.922 35.3594 27.6524 35.3594C26.9493 35.3594 26.2814 35.4648 25.6134 35.7109L25.3673 35.0078L27.9337 32.3711L29.6212 31.5273C29.9376 31.3867 30.0431 31 29.9024 30.7188L27.9689 26.7461C33.0314 23.0195 39.6056 22 45.547 24.0391L44.0704 25.4453H38.5157C38.3048 25.4453 38.129 25.5508 38.0235 25.6914L34.8243 30.2266C34.6485 30.5078 34.6837 30.8594 34.9649 31.0703L38.1642 33.5312L34.8595 37.082C34.754 37.1875 34.6837 37.3281 34.6837 37.5039V42.7422C34.6837 42.9883 34.8595 43.2344 35.0704 43.3047L40.5548 45.3086V47.9805C40.5548 48.1562 40.6251 48.332 40.7657 48.4375L43.4376 50.8633V53.1484C43.4376 53.5 43.7189 53.7461 44.0353 53.7461H46.9532C47.1642 53.7461 47.3751 53.6406 47.4806 53.4297L51.2423 46.8906C51.3126 46.7852 51.3126 46.6797 51.3126 46.5742V43.6563L53.211 41.7578C53.3165 41.6523 53.3868 41.4766 53.3868 41.3359V38.8398C53.3868 38.5586 53.211 38.3125 52.9298 38.2422L49.5548 37.293L48.3243 34.8672C48.2189 34.6914 48.0782 34.5859 47.8673 34.5508L43.086 33.8125V33.3203L49.5196 31.8789L51.9454 34.3047C52.0509 34.4102 52.2267 34.4805 52.3673 34.4805H56.8673C57.922 36.8711 58.4493 39.4375 58.4493 42.0742C58.4493 52.6211 49.8712 61.1641 39.3243 61.1992Z" fill="white"/>
<path d="M27.582 38.0664C25.8945 38.0664 24.4883 39.4375 24.4883 41.1602C24.4883 42.8477 25.8594 44.2539 27.582 44.2539C29.3047 44.2539 30.6758 42.8828 30.6758 41.1602C30.6406 39.4727 29.2695 38.0664 27.582 38.0664ZM27.582 43.0234C26.5625 43.0234 25.7187 42.1797 25.7187 41.1602C25.7187 40.1406 26.5625 39.2969 27.582 39.2969C28.6016 39.2969 29.4453 40.1406 29.4453 41.1602C29.4453 42.1797 28.6016 43.0234 27.582 43.0234Z" fill="white"/>
</g>
<defs>
<clipPath id="clip0_1_1725">
<rect width="45" height="45" fill="white" transform="translate(17 17.5)"/>
</clipPath>
</defs>
</svg>
