<svg width="629" height="703" viewBox="0 0 629 703" fill="none" xmlns="http://www.w3.org/2000/svg">
<g clip-path="url(#clip0_1_844)">
<path d="M627.06 390.847C620.214 448.658 593.794 515.892 541.001 546.838C461.253 593.525 467.925 665.312 312.291 696.526C289.587 701.185 266.444 703.373 243.268 703.05C231.927 702.846 220.611 701.92 209.388 700.276C110.459 685.843 43.8646 617.144 19.4479 534.217C-12.6977 425.149 51.483 353.756 94.0231 310.724C136.563 267.693 167.699 133.587 320.493 101.68C343.815 96.7165 367.632 94.4589 391.472 94.9521C445.826 96.2914 505.118 114.112 546.159 151.345C549.23 154.139 552.227 157.033 555.15 160.027C612.154 218.516 636.381 312.016 627.06 390.847Z" fill="#83CD20"/>
<path d="M627.06 390.847C620.214 448.658 593.794 515.892 541.001 546.838C461.253 593.525 467.925 665.312 312.291 696.526C289.587 701.185 266.444 703.373 243.268 703.05C231.927 702.846 220.611 701.92 209.388 700.276C110.459 685.843 43.8646 617.144 19.4479 534.217C-12.6977 425.149 51.483 353.756 94.0231 310.724C136.563 267.693 167.699 133.587 320.493 101.68C343.815 96.7165 367.632 94.4589 391.472 94.9521C445.826 96.2914 505.118 114.112 546.159 151.345C549.23 154.139 552.227 157.033 555.15 160.027C612.154 218.516 636.381 312.016 627.06 390.847Z" fill="white"/>
<g opacity="0.15">
<path d="M422.641 109.556C415.165 114.74 395.07 118.222 395.054 118.222C395.038 118.222 396.773 104.293 396.994 103.426C399.581 93.3892 410.464 75.5054 422.073 74.7963C430.417 74.2921 436.553 81.5402 436.269 89.5603C435.985 97.5805 429.013 105.096 422.641 109.556Z" fill="#D9D9D9"/>
<path d="M367.292 362.15C367.292 362.622 367.292 363.063 367.292 363.536L360.352 367.964C360.352 366.073 360.352 364.166 360.352 362.181C360.352 356.603 360.462 350.631 360.62 344.502C354.863 343.428 349.174 342.012 343.585 340.263C338.995 347.716 325.509 358.053 323.758 359.376C326.771 363.977 329.768 368.405 332.639 372.565C334.626 375.417 336.55 378.143 338.412 380.774L330.856 382.255C329.563 380.364 328.269 378.426 326.945 376.409C323.79 371.761 320.635 366.719 317.402 361.519C315.351 362.386 298.474 369.398 289.957 369.161C282.212 368.956 272.401 366.53 267.638 359.865C262.874 353.2 264.136 343.919 271.407 339.775C281.502 334.008 300.414 343.021 308.064 350.017C308.521 350.427 312.922 355.453 315.651 358.667C314.342 356.54 313.033 354.476 311.708 352.27C309.058 347.905 306.55 343.478 303.821 338.735L300.067 331.645C298.774 329.297 297.701 326.665 296.487 324.144C293.789 318.267 291.36 312.185 289.042 306.008C285.225 308.325 271.518 316.329 263.805 317.29C256.092 318.251 246.06 317.29 240.334 311.476C234.609 305.662 234.451 296.239 241.013 290.992C250.114 283.776 270.177 289.826 278.868 295.578C279.42 295.924 285.177 300.761 288.237 303.456C286.865 299.722 285.493 296.003 284.231 292.19C280.603 281.16 277.275 269.91 273.9 258.691C272.848 255.256 271.796 251.832 270.745 248.418C269.404 249.253 253.394 259.132 244.672 260.204C236.975 261.181 226.911 260.204 221.202 254.39C215.492 248.575 215.318 239.153 221.88 233.906C230.981 226.689 251.044 232.74 259.735 238.491C260.382 238.932 268.616 245.881 270.619 247.756C268.284 240.209 265.887 232.724 263.237 225.445C259.641 215.637 255.41 206.073 250.571 196.815C249.94 197.193 233.221 207.576 224.356 208.679C216.659 209.641 206.596 208.679 200.87 202.865C195.144 197.051 194.987 187.629 201.548 182.382C210.649 175.165 230.713 181.216 239.404 186.967C240.066 187.424 248.868 194.845 250.445 196.421C250.177 195.885 249.94 195.302 249.656 194.845C244.587 185.642 238.713 176.904 232.101 168.736C228.52 164.167 224.829 160.023 221.06 156.131C218.142 158.384 204.703 168.531 196.832 170.406C189.293 172.203 179.182 172.408 172.857 167.255C166.532 162.103 165.333 152.759 171.28 146.882C179.545 138.704 200.144 142.517 209.356 147.291C209.861 147.544 214.656 150.742 218.126 153.121C216.438 151.357 214.719 149.513 213.078 147.859C206.88 141.556 200.838 136.293 195.444 131.614C192.289 128.982 189.513 126.666 186.816 124.523C182.81 125.232 166.579 127.926 158.866 126.004C151.153 124.082 142.289 119.701 139.071 112.123C135.853 104.544 139.071 95.7986 147.084 93.309C158.125 89.8583 174.702 102.763 180.68 111.193C181.201 111.933 187.952 124.302 187.747 124.35H187.51C190.129 126.351 192.92 128.541 195.933 130.999C201.438 135.568 207.621 140.768 213.962 146.898C220.874 153.419 227.394 160.343 233.489 167.633C240.372 175.749 246.512 184.466 251.833 193.679L252.006 194.026C251.281 190.701 249.593 181.342 249.546 180.601C248.868 170.265 253.631 149.876 264.436 145.59C272.212 142.438 280.303 147.481 282.496 155.201C284.688 162.922 280.54 172.077 275.808 178.253C270.54 185.234 253.883 194.246 252.558 194.971C257.742 204.474 262.285 214.312 266.155 224.42C268.442 230.298 270.571 236.301 272.622 242.336C272.101 239.436 271.644 236.837 271.628 236.474C270.95 226.138 275.713 205.749 286.518 201.463C294.294 198.312 302.386 203.354 304.578 211.074C306.771 218.795 302.622 228.123 297.89 234.3C293.158 240.476 279.105 248.481 275.351 250.608C276.124 252.94 276.928 255.24 277.669 257.572C281.281 268.728 284.846 279.884 288.71 290.661C290.051 294.475 291.518 298.177 292.985 301.896C292.512 299.328 292.149 297.169 292.117 296.822C291.439 286.486 296.203 266.097 307.007 261.811C314.783 258.738 322.875 263.702 325.068 271.423C327.26 279.143 323.127 288.534 318.395 294.711C313.664 300.888 301.045 308.183 296.534 310.641C298.111 314.407 299.689 318.173 301.471 321.671C302.701 324.081 303.726 326.492 305.099 328.856C306.471 331.219 307.717 333.583 308.995 335.867C311.645 340.232 314.342 344.754 317.023 348.945C318.869 351.876 320.683 354.634 322.496 357.422C321.108 353.625 318.537 346.172 318.395 345.51C316.771 336.557 317.46 327.337 320.399 318.724C320.172 317.73 320.04 316.717 320.004 315.699C319.72 307.694 325.888 300.478 334.2 301.029C345.793 301.786 356.582 319.733 359.106 329.785C359.264 330.368 360.163 336.986 360.683 341.162C360.778 338.672 360.825 336.23 360.936 333.661C361.141 328.572 361.472 323.483 361.819 318.015C362.087 315.384 362.355 312.721 362.623 310.042C362.891 307.364 363.396 304.575 363.759 301.817C364.768 295.514 366.093 289.023 367.576 282.578C363.112 282.405 347.26 281.538 340.289 278.088C333.317 274.637 325.446 268.334 323.916 260.298C322.386 252.262 327.433 244.337 335.762 243.628C347.339 242.619 360.746 258.723 364.768 268.271C365.021 268.87 367.134 276.055 368.223 280.01C369.138 276.15 370.037 272.289 371.093 268.429C374.153 257.226 377.592 246.007 380.967 234.788C382.008 231.353 383.002 227.918 384.012 224.468C382.434 224.468 363.507 223.806 355.746 219.93C348.806 216.495 340.904 210.192 339.374 202.14C337.844 194.089 342.891 186.195 351.235 185.47C362.797 184.477 376.204 200.565 380.226 210.129C380.526 210.838 383.554 221.159 384.201 223.853C386.409 216.274 388.554 208.711 390.352 201.179C392.844 191.01 394.667 180.688 395.81 170.28C395.069 170.28 375.305 169.697 367.418 165.727C360.462 162.292 352.576 155.989 351.046 147.937C349.516 139.886 354.547 131.992 362.891 131.267C374.469 130.274 387.86 146.362 391.882 155.926C392.214 156.667 395.463 167.791 395.905 169.855C395.905 169.256 396.094 168.626 396.157 168.027C397.021 157.537 396.947 146.991 395.936 136.514C395.463 130.731 394.674 125.232 393.791 119.906C390.116 120.174 373.286 121.23 365.699 118.457C358.412 115.81 349.926 110.405 347.481 102.574C345.036 94.7429 349.216 86.3288 357.418 84.7059C368.822 82.4369 383.901 96.9646 388.964 106.025C389.232 106.513 391.472 111.823 393.05 115.731C392.608 113.32 392.214 110.83 391.756 108.546C390.037 99.9426 387.939 92.1588 386.015 85.2889C384.895 81.3812 383.807 77.8833 382.75 74.6059C378.996 73.0302 363.98 66.3021 358.617 60.4249C353.254 54.5476 348.286 45.9917 349.768 37.9243C351.251 29.8569 358.775 24.4681 366.819 26.7686C377.986 30.0145 384.658 49.8521 384.974 60.22C384.974 61.1024 383.791 75.1573 383.601 75.0786L383.365 74.984C384.453 78.1354 385.573 81.46 386.725 85.1628C388.791 92.0012 391.062 99.7535 393.034 108.372C395.198 117.619 396.82 126.984 397.892 136.419C399.135 146.987 399.436 157.643 398.791 168.264V168.642C400.037 165.49 403.791 156.73 404.154 156.036C409.296 147.039 424.533 132.669 435.905 135.048C444.091 136.766 448.098 145.369 445.669 153.027C443.24 160.685 434.627 166.136 427.277 168.784C419.028 171.683 400.147 170.028 398.649 169.886C397.726 180.678 396.082 191.395 393.728 201.967C392.387 208.128 390.857 214.305 389.232 220.465C390.4 217.755 391.456 215.345 391.63 215.029C396.772 206.032 412.009 191.646 423.381 194.041C431.583 195.759 435.574 204.362 433.145 212.004C430.716 219.646 422.104 225.129 414.753 227.761C407.403 230.392 391.22 229.336 386.945 228.943C386.314 231.306 385.684 233.67 385.037 236.017C381.882 247.331 378.728 258.597 375.92 269.752C374.942 273.676 374.122 277.631 373.286 281.475C374.311 279.08 375.194 277.063 375.368 276.748C380.51 267.751 395.747 253.381 407.119 255.76C415.305 257.478 419.312 266.081 416.883 273.739C414.454 281.397 405.842 286.848 398.491 289.495C391.141 292.143 376.519 291.071 371.456 290.724C370.715 294.758 369.973 298.792 369.437 302.715C369.138 305.41 368.649 307.978 368.507 310.704C368.365 313.43 368.081 316.061 367.876 318.693C367.671 323.798 367.418 329.045 367.339 334.024C367.339 337.49 367.245 340.783 367.229 344.108C368.16 340.185 370.147 332.543 370.384 331.928C374.106 322.254 386.993 305.741 398.586 306.371C406.946 306.828 412.198 314.738 410.952 322.663C409.706 330.589 401.993 337.301 395.179 340.957C387.655 344.975 369.485 346.235 367.213 346.377C367.071 351.75 367.103 357.107 367.292 362.15Z" fill="#D9D9D9"/>
<path d="M221.107 153.769C220.949 153.911 214.797 141.164 214.545 140.344C211.154 130.559 210.365 109.634 219.655 102.654C226.343 97.6279 235.429 100.291 239.624 107.161C243.82 114.031 242.195 124.131 239.324 131.331C235.949 139.761 221.122 153.753 221.107 153.769Z" fill="#D9D9D9"/>
</g>
<g opacity="0.15">
<path d="M116.39 401.481C115.096 405.988 108.219 413.945 108.219 413.96C108.219 413.976 104.355 407.831 104.15 407.421C101.894 402.568 100.396 391.885 104.781 387.804C105.532 387.151 106.413 386.663 107.365 386.372C108.318 386.08 109.321 385.992 110.31 386.112C111.298 386.232 112.251 386.559 113.105 387.07C113.96 387.582 114.697 388.266 115.27 389.081C117.809 392.453 117.478 397.637 116.39 401.481Z" fill="#D9D9D9"/>
<path d="M176.958 520.347L177.415 520.882L176.122 524.916L174.229 522.616C172.399 520.394 170.491 517.983 168.551 515.478C165.9 516.928 163.166 518.222 160.365 519.354C160.98 523.829 158.976 532.353 158.708 533.44C161.421 534.291 164.055 535.095 166.595 535.804C168.33 536.308 169.986 536.765 171.595 537.19L169.055 540.342L165.585 539.286C162.825 538.435 159.907 537.474 156.91 536.45C156.374 537.474 151.942 545.778 148.472 548.472C145.317 550.915 140.585 553.199 136.516 552.049C135.547 551.82 134.638 551.39 133.846 550.788C133.055 550.185 132.399 549.423 131.922 548.551C131.444 547.679 131.156 546.716 131.075 545.725C130.994 544.734 131.123 543.738 131.452 542.8C133.582 537.206 144.071 534.622 149.418 534.921C149.733 534.921 153.14 535.504 155.27 535.898C154.055 535.473 152.856 535.079 151.61 534.622C149.134 533.755 146.673 532.81 144.039 531.802L140.222 530.226C138.929 529.722 137.635 529.028 136.342 528.414C133.345 526.949 130.38 525.263 127.43 523.608C126.657 525.783 123.818 533.44 121.121 536.355C118.424 539.27 114.055 542.17 109.859 541.697C108.867 541.619 107.903 541.333 107.028 540.858C106.154 540.384 105.389 539.731 104.784 538.942C104.178 538.153 103.746 537.245 103.514 536.279C103.283 535.312 103.257 534.307 103.439 533.33C104.701 527.484 114.686 523.34 120.017 522.82C120.348 522.82 124.213 522.82 126.326 522.899C124.56 521.859 122.793 520.835 121.042 519.748C115.995 516.596 110.979 513.146 105.963 509.774C104.386 508.734 102.808 507.725 101.342 506.622C101.073 507.395 97.8872 516.581 94.7957 519.842C92.0512 522.742 87.7293 525.657 83.5337 525.184C82.5417 525.106 81.5772 524.82 80.7029 524.345C79.8285 523.871 79.0639 523.218 78.4585 522.429C77.8531 521.64 77.4206 520.732 77.189 519.766C76.9574 518.799 76.9318 517.794 77.114 516.817C78.3759 510.971 88.3603 506.827 93.6916 506.307C94.0859 506.307 99.6538 506.307 101.058 506.433C97.6664 504.196 94.2594 501.99 90.8209 499.957C86.1828 497.176 81.3669 494.702 76.4043 492.552C76.2938 492.914 73.013 502.526 69.8426 505.85C67.0823 508.75 62.7763 511.68 58.5649 511.208C57.5726 511.128 56.6083 510.84 55.7346 510.364C54.8608 509.887 54.0972 509.232 53.4933 508.442C52.8893 507.651 52.4586 506.743 52.2291 505.775C51.9996 504.807 51.9764 503.802 52.161 502.825C53.4228 496.979 63.4072 492.835 68.7227 492.315C69.1486 492.315 75.1266 492.315 76.215 492.457C75.9311 492.347 75.6314 492.189 75.3475 492.063C70.3226 490.021 65.1224 488.439 59.8109 487.336C56.8771 486.69 54.0538 486.233 51.2935 485.855C50.8676 487.699 48.8171 496.144 46.2934 499.453C43.7697 502.762 39.9053 506.024 35.6781 506.008C34.6841 506.04 33.6945 505.862 32.7738 505.486C31.8532 505.11 31.022 504.545 30.3346 503.827C29.6471 503.109 29.1188 502.255 28.7839 501.319C28.449 500.384 28.3151 499.388 28.3909 498.398C29.0061 492.441 38.4699 487.226 43.7066 486.123C43.9905 486.123 46.9559 485.776 49.1168 485.587C47.8549 485.446 46.5773 485.256 45.3786 485.13C40.8674 484.673 36.7033 484.516 33.0282 484.421C30.9304 484.421 29.0376 484.421 27.271 484.421C25.8988 485.997 20.2993 492.378 16.6084 494.127C12.9175 495.876 7.91741 497.011 4.16341 495.057C3.26489 494.629 2.46694 494.015 1.82162 493.258C1.1763 492.501 0.698123 491.616 0.418299 490.661C0.138475 489.706 0.0632888 488.704 0.197651 487.718C0.332013 486.733 0.672905 485.786 1.19807 484.941C4.49465 479.946 15.2992 479.679 20.457 481.112C20.8987 481.223 27.6496 483.964 27.5865 484.043L27.4918 484.138C29.1953 484.138 31.025 484.043 33.0282 484.043C36.7191 484.043 40.9148 484.122 45.4259 484.5C50.3163 484.85 55.1825 485.481 60.0002 486.391C65.3768 487.391 70.6549 488.862 75.7733 490.787L75.9626 490.866C74.5903 489.779 70.8521 486.596 70.584 486.328C66.9246 482.42 62.1611 472.73 65.0634 467.42C65.5729 466.565 66.2564 465.826 67.0698 465.252C67.8832 464.677 68.8083 464.28 69.7853 464.085C70.7622 463.891 71.7691 463.903 72.7409 464.122C73.7126 464.341 74.6275 464.761 75.4263 465.356C78.8964 467.767 80.1582 472.809 80.3633 476.795C80.5368 481.302 76.8459 490.33 76.5462 490.976C81.7285 493.067 86.7614 495.51 91.6095 498.287C94.4487 499.863 97.2563 501.58 100.048 503.314C98.8967 502.337 97.8715 501.439 97.7453 501.297C94.0859 497.405 89.3067 487.714 92.2247 482.483C92.7308 481.627 93.4121 480.886 94.224 480.311C95.0359 479.735 95.9602 479.337 96.9366 479.142C97.913 478.947 98.9196 478.96 99.8906 479.18C100.862 479.4 101.775 479.822 102.572 480.419C106.042 482.83 107.304 487.872 107.509 491.858C107.714 495.845 104.685 503.676 103.865 505.724L107.02 507.741C112.115 511.003 117.194 514.296 122.272 517.369C124.055 518.44 125.853 519.448 127.651 520.52C126.626 519.638 125.774 518.944 125.648 518.771C121.989 514.863 117.225 505.173 120.127 499.942C120.635 499.087 121.317 498.349 122.129 497.774C122.941 497.2 123.865 496.803 124.841 496.608C125.816 496.413 126.822 496.426 127.793 496.645C128.763 496.863 129.677 497.283 130.474 497.878C133.945 500.288 135.206 505.33 135.427 509.317C135.648 513.303 132.872 520.347 131.91 522.82C133.787 523.797 135.664 524.774 137.509 525.641C138.803 526.192 139.986 526.823 141.311 527.311L145.159 528.887C147.636 529.769 150.191 530.683 152.636 531.487C154.339 532.054 155.964 532.558 157.588 533.062C155.806 532.007 152.336 529.911 152.068 529.643C148.476 526.603 145.728 522.69 144.087 518.282C143.666 517.967 143.28 517.608 142.935 517.211C142.251 516.489 141.727 515.631 141.398 514.693C141.069 513.754 140.942 512.757 141.025 511.767C141.109 510.776 141.401 509.814 141.882 508.944C142.363 508.074 143.023 507.315 143.819 506.717C148.677 503.235 158.866 506.859 163.156 510.042C163.409 510.231 165.932 512.579 167.51 514.075C166.721 513.051 165.932 512.074 165.144 511.003C163.566 508.907 161.989 506.764 160.412 504.48L158.125 501.029C157.336 499.91 156.642 498.602 155.885 497.389C154.197 494.506 152.62 491.512 151.153 488.471C149.323 489.857 142.714 494.679 138.803 495.577C134.891 496.475 129.702 496.538 126.452 493.828C125.668 493.217 125.021 492.448 124.553 491.57C124.086 490.693 123.809 489.727 123.741 488.735C123.673 487.743 123.814 486.749 124.156 485.815C124.498 484.882 125.033 484.031 125.727 483.318C130.017 479.127 140.617 481.175 145.348 483.681C145.648 483.838 148.85 486.013 150.569 487.226C149.686 485.398 148.771 483.555 147.935 481.664C145.49 476.212 143.203 470.634 140.853 465.025C140.143 463.323 139.418 461.621 138.692 459.92C138.046 460.424 130.317 466.333 125.948 467.341C122.052 468.239 116.831 468.302 113.597 465.592C112.813 464.979 112.167 464.209 111.699 463.331C111.232 462.452 110.954 461.486 110.884 460.494C110.815 459.502 110.954 458.506 111.294 457.571C111.633 456.636 112.165 455.783 112.856 455.067C117.146 450.891 127.761 452.94 132.493 455.429C132.856 455.618 137.446 458.754 138.566 459.605C136.989 455.87 135.411 452.152 133.598 448.575C131.278 443.708 128.644 438.997 125.711 434.473C125.396 434.709 117.367 440.901 112.872 441.941C108.976 442.839 103.771 442.902 100.521 440.192C99.7362 439.58 99.089 438.809 98.6217 437.93C98.1544 437.051 97.8775 436.084 97.809 435.091C97.7406 434.098 97.8821 433.102 98.2244 432.168C98.5667 431.233 99.1021 430.381 99.7958 429.667C104.086 425.491 114.701 427.54 119.433 430.029C119.796 430.234 124.733 433.606 125.585 434.284C125.411 434.016 125.269 433.732 125.096 433.464C122.01 429.013 118.537 424.842 114.717 421.001C112.635 418.842 110.521 416.904 108.408 415.076C107.036 416.384 100.663 422.293 96.7358 423.664C92.8083 425.034 87.7924 425.617 84.2593 423.285C83.4133 422.761 82.6871 422.065 82.1274 421.242C81.5677 420.42 81.1871 419.489 81.0102 418.51C80.8333 417.532 80.864 416.527 81.1003 415.561C81.3367 414.594 81.7734 413.689 82.3823 412.902C86.1836 408.285 96.9566 409.152 101.941 411.121C102.209 411.216 104.843 412.697 106.673 413.658C105.711 412.839 104.749 411.972 103.802 411.216C100.3 408.348 96.9251 405.922 93.9124 403.81C92.1931 402.613 90.6001 401.573 89.1805 400.659C87.1457 401.226 78.9753 403.464 74.9847 402.881C70.9941 402.298 66.136 400.501 64.1012 396.798C63.5877 395.944 63.2612 394.991 63.1431 394.001C63.025 393.011 63.118 392.008 63.416 391.057C63.714 390.106 64.2103 389.228 64.8721 388.483C65.5339 387.737 66.3463 387.14 67.2558 386.73C72.7607 384.382 81.9248 390.102 85.4422 394.136C85.7419 394.482 89.8587 400.438 89.7483 400.438H89.6379C91.089 401.336 92.6348 402.313 94.3698 403.416C97.4298 405.465 100.868 407.812 104.449 410.617C108.31 413.608 111.996 416.817 115.49 420.229C119.441 424.036 123.046 428.186 126.263 432.629L126.373 432.802C125.821 431.132 124.465 426.5 124.402 426.043C123.503 420.764 124.875 410.066 130.191 407.308C131.086 406.871 132.063 406.627 133.058 406.593C134.054 406.559 135.046 406.735 135.969 407.109C136.892 407.484 137.725 408.049 138.415 408.768C139.104 409.486 139.634 410.342 139.97 411.279C141.547 415.202 139.844 420.134 137.777 423.553C135.427 427.398 127.367 432.897 126.736 433.338C129.896 437.945 132.746 442.756 135.269 447.74C136.752 450.639 138.156 453.601 139.528 456.579C139.102 455.13 138.74 453.822 138.708 453.633C137.809 448.354 139.181 437.656 144.497 434.898C145.392 434.461 146.369 434.217 147.365 434.183C148.36 434.149 149.352 434.325 150.275 434.699C151.198 435.074 152.031 435.639 152.721 436.358C153.41 437.076 153.94 437.932 154.276 438.869C155.853 442.792 154.15 447.724 152.068 451.143C149.986 454.562 143.188 459.431 141.374 460.692C141.878 461.842 142.415 462.977 142.951 464.143C145.396 469.673 147.809 475.172 150.349 480.561C151.248 482.452 152.194 484.28 153.14 486.107C152.762 484.815 152.462 483.712 152.431 483.539C151.532 478.276 152.904 467.562 158.219 464.804C159.116 464.37 160.094 464.129 161.089 464.097C162.085 464.065 163.077 464.243 163.999 464.619C164.921 464.995 165.754 465.561 166.443 466.279C167.133 466.998 167.662 467.854 167.999 468.791C169.576 472.714 167.872 477.63 165.79 481.049C163.708 484.469 157.573 488.928 155.428 490.377C156.437 492.221 157.462 494.064 158.582 495.813C159.339 496.979 160.002 498.161 160.822 499.296C161.642 500.43 162.399 501.565 163.188 502.699C164.765 504.795 166.342 506.969 167.999 509.002C169.103 510.404 170.175 511.728 171.248 513.051C170.333 511.192 168.63 507.489 168.519 507.158C166.847 502.1 166.579 491.307 171.406 487.762C172.226 487.2 173.156 486.816 174.135 486.635C175.113 486.454 176.119 486.48 177.087 486.712C178.054 486.943 178.963 487.375 179.753 487.98C180.543 488.584 181.197 489.347 181.674 490.22C183.819 493.86 182.888 498.996 181.359 502.683C179.671 506.733 172.841 513.177 171.989 513.965C173.488 516.25 175.254 518.377 176.958 520.347Z" fill="#D9D9D9"/>
<path d="M50.4902 484.943C50.4902 485.053 43.8813 481.98 43.4869 481.791C38.9285 479.002 31.7675 470.903 33.1871 465.089C33.4475 464.125 33.9092 463.227 34.5417 462.454C35.1743 461.681 35.9635 461.051 36.8574 460.605C37.7513 460.158 38.7297 459.906 39.7282 459.864C40.7267 459.822 41.7228 459.992 42.651 460.362C46.6416 461.764 49.2441 466.287 50.4429 470.084C51.8309 474.512 50.4902 484.943 50.4902 484.943Z" fill="#D9D9D9"/>
</g>
<g opacity="0.15">
<path d="M501.219 401.48C502.497 405.987 509.374 413.944 509.39 413.96C509.406 413.975 513.254 407.83 513.459 407.421C515.715 402.567 517.213 391.884 512.813 387.803C512.062 387.151 511.183 386.663 510.232 386.371C509.281 386.08 508.279 385.992 507.291 386.112C506.304 386.232 505.353 386.559 504.5 387.07C503.646 387.581 502.91 388.266 502.339 389.08C499.784 392.452 500.115 397.636 501.219 401.48Z" fill="#D9D9D9"/>
<path d="M440.652 520.347L440.194 520.882L441.488 524.916L443.381 522.616C445.21 520.394 447.119 517.983 449.059 515.478C451.708 516.931 454.442 518.225 457.245 519.354C456.63 523.829 458.633 532.353 458.901 533.44C456.188 534.291 453.538 535.095 451.015 535.804C449.296 536.308 447.639 536.765 446.031 537.19L448.57 540.342L452.04 539.286C454.785 538.435 457.718 537.474 460.715 536.45C461.252 537.474 465.668 545.778 469.154 548.472C472.308 550.915 477.04 553.199 481.11 552.049C482.078 551.82 482.988 551.39 483.779 550.788C484.57 550.185 485.226 549.423 485.704 548.551C486.181 547.679 486.47 546.716 486.55 545.725C486.631 544.734 486.503 543.738 486.173 542.8C484.028 537.206 473.555 534.622 468.192 534.921C467.876 534.921 464.485 535.504 462.34 535.898C463.57 535.473 464.753 535.079 466.015 534.622C468.491 533.755 470.952 532.81 473.586 531.802L477.403 530.226C478.681 529.722 479.974 529.028 481.283 528.414C484.28 526.949 487.246 525.263 490.179 523.608C490.952 525.783 493.807 533.44 496.568 536.355C499.328 539.27 503.634 542.17 507.83 541.697C508.822 541.619 509.786 541.333 510.66 540.858C511.535 540.384 512.299 539.731 512.905 538.942C513.51 538.153 513.943 537.245 514.174 536.279C514.406 535.312 514.431 534.307 514.249 533.33C512.972 527.484 503.003 523.34 497.672 522.82C497.34 522.82 493.476 522.82 491.362 522.899C493.113 521.859 494.88 520.835 496.631 519.748C501.694 516.596 506.71 513.146 511.725 509.774C513.303 508.734 514.801 507.725 516.347 506.622C516.615 507.395 519.786 516.581 522.893 519.842C525.637 522.742 529.959 525.657 534.155 525.184C535.147 525.106 536.111 524.82 536.986 524.345C537.86 523.871 538.625 523.218 539.23 522.429C539.835 521.64 540.268 520.732 540.5 519.766C540.731 518.799 540.757 517.794 540.574 516.817C539.297 510.971 529.328 506.827 523.997 506.307C523.603 506.307 518.035 506.307 516.631 506.433C520.022 504.196 523.429 501.99 526.868 499.957C531.502 497.179 536.313 494.706 541.269 492.552C541.395 492.914 544.676 502.526 547.846 505.85C550.606 508.75 554.912 511.68 559.108 511.208C560.102 511.13 561.068 510.844 561.943 510.368C562.819 509.893 563.584 509.238 564.19 508.447C564.796 507.656 565.228 506.747 565.458 505.779C565.689 504.81 565.712 503.804 565.528 502.825C564.266 496.979 554.281 492.835 548.95 492.315C548.54 492.315 542.562 492.315 541.474 492.457C541.757 492.347 542.041 492.189 542.341 492.063C547.366 490.021 552.566 488.439 557.878 487.336C560.796 486.69 563.635 486.233 566.395 485.855C566.821 487.699 568.871 496.144 571.395 499.453C573.919 502.762 577.704 506.024 582.01 506.008C583.004 506.037 583.992 505.858 584.912 505.481C585.831 505.104 586.661 504.539 587.348 503.822C588.035 503.104 588.564 502.251 588.9 501.316C589.235 500.382 589.371 499.388 589.298 498.398C588.682 492.441 579.219 487.226 573.982 486.123C573.698 486.123 570.733 485.776 568.572 485.587C569.834 485.446 571.111 485.256 572.31 485.13C576.821 484.673 580.969 484.516 584.66 484.421C586.758 484.421 588.651 484.421 590.418 484.421C591.79 485.997 597.373 492.378 601.08 494.127C604.787 495.876 609.771 497.011 613.525 495.057C614.422 494.627 615.219 494.013 615.862 493.255C616.506 492.497 616.983 491.612 617.261 490.657C617.539 489.703 617.613 488.7 617.478 487.715C617.342 486.731 617 485.785 616.475 484.941C613.194 479.946 602.389 479.679 597.232 481.112C596.774 481.223 590.039 483.964 590.102 484.043L590.181 484.138C588.477 484.138 586.648 484.043 584.66 484.043C580.969 484.043 576.774 484.122 572.263 484.5C567.372 484.849 562.506 485.48 557.688 486.391C552.286 487.39 546.981 488.861 541.836 490.787L541.663 490.866C543.035 489.779 546.773 486.596 547.041 486.328C550.685 482.42 555.464 472.73 552.546 467.42C552.04 466.563 551.359 465.823 550.547 465.247C549.735 464.672 548.811 464.273 547.834 464.079C546.858 463.884 545.851 463.897 544.88 464.117C543.909 464.337 542.996 464.759 542.199 465.356C538.729 467.767 537.467 472.809 537.262 476.795C537.089 481.302 540.78 490.33 541.079 490.976C535.893 493.07 530.855 495.512 526 498.287C523.177 499.863 520.369 501.58 517.562 503.314C518.729 502.337 519.754 501.439 519.88 501.297C523.54 497.405 528.303 487.714 525.401 482.483C524.895 481.627 524.213 480.886 523.401 480.311C522.59 479.735 521.665 479.337 520.689 479.142C519.712 478.947 518.706 478.96 517.735 479.18C516.764 479.4 515.85 479.822 515.054 480.419C511.584 482.83 510.322 487.872 510.117 491.858C509.912 495.845 512.94 503.676 513.76 505.724L510.606 507.741C505.511 511.003 500.448 514.296 495.369 517.369C493.586 518.44 491.788 519.448 489.99 520.52C491.015 519.638 491.867 518.944 491.993 518.771C495.653 514.863 500.416 505.173 497.514 499.942C497.004 499.087 496.321 498.348 495.507 497.773C494.694 497.199 493.769 496.802 492.792 496.607C491.815 496.412 490.808 496.425 489.836 496.644C488.865 496.863 487.95 497.283 487.151 497.878C483.681 500.288 482.419 505.33 482.214 509.317C482.009 513.303 484.769 520.347 485.731 522.82C483.854 523.797 481.977 524.774 480.116 525.641C478.839 526.192 477.64 526.823 476.331 527.311L472.482 528.887C469.99 529.769 467.45 530.683 465.006 531.487C463.302 532.054 461.677 532.558 460.053 533.062C461.835 532.007 465.305 529.911 465.573 529.643C469.165 526.603 471.914 522.69 473.555 518.282C473.972 517.963 474.357 517.604 474.706 517.211C475.388 516.488 475.91 515.629 476.237 514.691C476.565 513.754 476.692 512.757 476.608 511.767C476.525 510.777 476.234 509.816 475.754 508.946C475.274 508.076 474.616 507.316 473.823 506.717C468.949 503.235 458.775 506.859 454.485 510.042C454.217 510.231 451.709 512.579 450.131 514.075C450.92 513.051 451.709 512.074 452.497 511.003C454.075 508.907 455.652 506.764 457.229 504.48L459.517 501.029C460.305 499.91 460.999 498.602 461.756 497.389C463.444 494.506 465.006 491.512 466.488 488.471C468.334 489.857 474.943 494.679 478.854 495.577C482.766 496.475 487.955 496.538 491.205 493.828C491.989 493.217 492.636 492.448 493.104 491.57C493.571 490.693 493.848 489.727 493.916 488.735C493.984 487.743 493.843 486.749 493.501 485.815C493.159 484.882 492.624 484.031 491.93 483.318C487.64 479.127 477.025 481.175 472.293 483.681C472.009 483.838 468.807 486.013 467.072 487.226C467.971 485.398 468.886 483.555 469.722 481.664C472.167 476.212 474.454 470.634 476.788 465.025C477.498 463.323 478.223 461.621 478.949 459.92C479.611 460.424 487.324 466.333 491.709 467.341C495.605 468.239 500.81 468.302 504.06 465.592C504.845 464.98 505.492 464.209 505.959 463.33C506.427 462.451 506.704 461.484 506.772 460.491C506.84 459.498 506.699 458.502 506.357 457.568C506.014 456.633 505.479 455.781 504.785 455.067C500.495 450.891 489.896 452.94 485.164 455.429C484.801 455.618 480.211 458.754 479.091 459.605C480.668 455.87 482.246 452.152 484.044 448.575C486.369 443.711 489.003 439.001 491.93 434.473C492.23 434.709 500.274 440.901 504.754 441.941C508.65 442.839 513.871 442.902 517.104 440.192C517.889 439.58 518.537 438.809 519.004 437.93C519.471 437.051 519.748 436.084 519.816 435.091C519.885 434.098 519.743 433.102 519.401 432.168C519.059 431.233 518.523 430.381 517.83 429.667C513.555 425.491 502.94 427.54 498.208 430.029C497.829 430.234 492.892 433.606 492.056 434.284C492.214 434.016 492.372 433.732 492.545 433.464C495.631 429.013 499.104 424.842 502.924 421.001C505.006 418.842 507.12 416.904 509.233 415.076C510.606 416.384 516.978 422.293 520.905 423.664C524.833 425.034 529.849 425.617 533.382 423.285C534.228 422.761 534.954 422.065 535.514 421.242C536.074 420.42 536.454 419.489 536.631 418.51C536.808 417.532 536.777 416.527 536.541 415.561C536.305 414.594 535.868 413.689 535.259 412.902C531.458 408.285 520.685 409.152 515.7 411.121C515.432 411.216 512.798 412.697 510.968 413.658C511.915 412.839 512.893 411.972 513.823 411.216C517.325 408.348 520.716 405.922 523.729 403.81C525.448 402.613 527.041 401.573 528.461 400.659C530.48 401.226 538.666 403.464 542.657 402.881C546.647 402.298 551.489 400.501 553.54 396.798C554.048 395.943 554.371 394.99 554.486 394.001C554.602 393.013 554.508 392.011 554.21 391.061C553.913 390.112 553.418 389.235 552.759 388.489C552.1 387.743 551.291 387.143 550.385 386.73C544.865 384.382 535.716 390.102 532.199 394.136C531.899 394.482 527.783 400.438 527.877 400.438H528.003C526.552 401.336 525.006 402.313 523.271 403.416C520.211 405.465 516.757 407.812 513.192 410.617C509.331 413.608 505.645 416.817 502.151 420.229C498.2 424.036 494.595 428.186 491.378 432.629L491.268 432.802C491.804 431.132 493.176 426.5 493.239 426.043C494.123 420.764 492.75 410.066 487.435 407.308C486.541 406.871 485.565 406.627 484.57 406.593C483.576 406.559 482.585 406.735 481.663 407.11C480.742 407.485 479.91 408.05 479.222 408.769C478.534 409.487 478.005 410.342 477.671 411.279C476.094 415.202 477.798 420.134 479.864 423.553C482.198 427.398 490.274 432.897 490.905 433.338C487.74 437.942 484.889 442.753 482.372 447.74C480.889 450.639 479.485 453.601 478.113 456.579C478.539 455.13 478.902 453.822 478.933 453.633C479.832 448.354 478.46 437.656 473.144 434.898C472.249 434.461 471.272 434.217 470.277 434.183C469.281 434.149 468.289 434.325 467.366 434.699C466.443 435.074 465.61 435.639 464.92 436.358C464.231 437.076 463.701 437.932 463.365 438.869C461.788 442.792 463.491 447.724 465.558 451.143C467.624 454.562 474.454 459.431 476.268 460.692C475.747 461.842 475.227 462.977 474.69 464.143C472.245 469.673 469.816 475.172 467.293 480.561C466.394 482.452 465.447 484.28 464.501 486.107C464.879 484.815 465.179 483.712 465.211 483.539C466.11 478.276 464.737 467.562 459.406 464.804C458.51 464.373 457.534 464.134 456.54 464.103C455.546 464.073 454.557 464.251 453.636 464.627C452.716 465.003 451.884 465.568 451.196 466.285C450.509 467.002 449.979 467.856 449.643 468.791C448.065 472.714 449.769 477.63 451.835 481.049C453.901 484.469 460.069 488.928 462.214 490.377C461.188 492.221 460.179 494.064 459.059 495.813C458.286 496.979 457.64 498.161 456.819 499.296L454.438 502.699C452.86 504.795 451.283 506.969 449.706 509.002C448.602 510.404 447.529 511.728 446.456 513.051C447.355 511.192 449.075 507.489 449.169 507.158C450.857 502.1 451.125 491.307 446.299 487.762C445.478 487.2 444.548 486.816 443.57 486.635C442.591 486.454 441.586 486.48 440.618 486.712C439.65 486.943 438.742 487.375 437.952 487.98C437.161 488.584 436.507 489.347 436.03 490.22C433.885 493.86 434.816 498.996 436.346 502.683C438.018 506.733 444.863 513.177 445.715 513.965C444.122 516.25 442.355 518.377 440.652 520.347Z" fill="#D9D9D9"/>
<path d="M567.12 484.943C567.12 485.053 573.729 481.98 574.124 481.791C578.682 479.002 585.843 470.903 584.423 465.089C584.163 464.125 583.701 463.227 583.069 462.454C582.436 461.681 581.647 461.051 580.753 460.605C579.859 460.158 578.881 459.906 577.882 459.864C576.884 459.822 575.888 459.992 574.959 460.362C570.969 461.764 568.366 466.287 567.168 470.084C565.78 474.512 567.12 484.943 567.12 484.943Z" fill="#D9D9D9"/>
</g>
<path d="M430.858 429.445L326.361 385.689L414.517 174.108L519.014 217.864L430.858 429.445Z" fill="#D9D9D9" stroke="#727272" stroke-width="1.50459" stroke-linecap="round" stroke-linejoin="round"/>
<path d="M498.035 239.467C496.242 238.726 494.628 237.609 493.302 236.193C491.976 234.777 490.968 233.094 490.347 231.257C489.725 229.42 489.504 227.472 489.699 225.542C489.893 223.613 490.498 221.747 491.474 220.071L431.536 194.955C431.382 195.49 431.198 196.016 430.984 196.53C430.294 198.195 429.281 199.706 428.003 200.977C426.725 202.248 425.209 203.254 423.54 203.937C421.871 204.619 420.084 204.965 418.28 204.954C416.477 204.943 414.694 204.576 413.034 203.873C412.766 203.763 412.513 203.621 412.261 203.495L345.762 363.488C346.03 363.583 346.298 363.661 346.55 363.772C348.353 364.503 349.976 365.613 351.309 367.028C352.643 368.443 353.655 370.129 354.276 371.97C354.898 373.812 355.114 375.765 354.91 377.698C354.707 379.631 354.088 381.496 353.096 383.168L413.113 408.284C413.257 407.748 413.436 407.222 413.649 406.709C414.344 405.054 415.358 403.553 416.634 402.29C417.91 401.027 419.422 400.028 421.084 399.349C422.747 398.67 424.527 398.325 426.323 398.333C428.119 398.342 429.895 398.703 431.551 399.398C432.072 399.618 432.577 399.886 433.129 400.154L499.691 240.035C499.125 239.888 498.572 239.699 498.035 239.467ZM413.034 322.568C408.949 320.857 405.464 317.974 403.019 314.284C400.575 310.595 399.28 306.264 399.299 301.839C399.318 297.414 400.65 293.094 403.126 289.426C405.602 285.757 409.112 282.904 413.211 281.228C417.31 279.552 421.815 279.127 426.156 280.008C430.496 280.889 434.478 283.036 437.598 286.177C440.717 289.319 442.834 293.313 443.681 297.656C444.528 301.999 444.067 306.496 442.356 310.577C441.221 313.29 439.562 315.752 437.473 317.823C435.385 319.894 432.908 321.534 430.184 322.648C427.461 323.761 424.544 324.328 421.601 324.314C418.658 324.3 415.747 323.707 413.034 322.568Z" fill="#D9D9D9" stroke="#727272" stroke-width="1.50459" stroke-linecap="round" stroke-linejoin="round"/>
<path d="M429.485 429.983L330.335 375.181L440.905 174.378L540.039 229.164L429.485 429.983Z" fill="#D9D9D9" stroke="#727272" stroke-width="1.50459" stroke-linecap="round" stroke-linejoin="round"/>
<path d="M516.852 248.366C515.28 247.499 513.894 246.331 512.775 244.929C511.655 243.526 510.823 241.917 510.326 240.193C509.829 238.469 509.678 236.664 509.88 234.882C510.083 233.099 510.635 231.374 511.505 229.805C511.792 229.317 512.102 228.843 512.436 228.387L455.495 196.873C455.289 197.412 455.052 197.938 454.785 198.449C453.027 201.615 450.082 203.955 446.598 204.953C443.114 205.952 439.376 205.528 436.205 203.775C435.954 203.643 435.712 203.495 435.479 203.334L352.039 355.196C352.298 355.304 352.55 355.425 352.796 355.559C355.969 357.313 358.314 360.253 359.317 363.734C360.319 367.214 359.897 370.95 358.143 374.12C357.865 374.613 357.554 375.086 357.213 375.538L414.138 407.052C414.349 406.513 414.591 405.987 414.864 405.476C415.731 403.905 416.901 402.521 418.304 401.402C419.708 400.284 421.319 399.452 423.045 398.956C424.771 398.46 426.578 398.309 428.362 398.511C430.147 398.713 431.874 399.265 433.444 400.134C433.935 400.417 434.409 400.727 434.864 401.064L518.461 249.075C517.909 248.878 517.371 248.641 516.852 248.366ZM423.381 321.808C419.502 319.664 416.346 316.419 414.313 312.483C412.28 308.548 411.461 304.098 411.96 299.698C412.458 295.297 414.252 291.143 417.115 287.761C419.977 284.379 423.779 281.92 428.04 280.697C432.301 279.474 436.829 279.54 441.052 280.888C445.275 282.236 449.003 284.804 451.765 288.269C454.527 291.733 456.198 295.938 456.567 300.352C456.936 304.765 455.987 309.189 453.839 313.063C450.96 318.257 446.134 322.095 440.422 323.735C434.711 325.375 428.581 324.682 423.381 321.808Z" fill="#D9D9D9" stroke="#727272" stroke-width="1.50459" stroke-linecap="round" stroke-linejoin="round"/>
<path d="M427.656 430.441L337.055 362.467L474.376 178.886L564.977 246.86L427.656 430.441Z" fill="#D9D9D9" stroke="#727272" stroke-width="1.50459" stroke-linecap="round" stroke-linejoin="round"/>
<path d="M539.344 262.662C537.899 261.586 536.682 260.235 535.762 258.687C534.842 257.139 534.237 255.424 533.984 253.642C533.73 251.859 533.832 250.044 534.284 248.301C534.735 246.558 535.528 244.922 536.616 243.486C536.96 243.036 537.334 242.609 537.736 242.21L485.684 203.165C485.4 203.659 485.089 204.138 484.754 204.599C482.574 207.49 479.336 209.4 475.749 209.908C472.161 210.416 468.519 209.481 465.621 207.309C465.384 207.136 465.179 206.947 464.958 206.773L361.282 345.621C361.518 345.779 361.755 345.92 361.976 346.094C364.874 348.271 366.789 351.508 367.3 355.094C367.812 358.681 366.878 362.323 364.705 365.222C364.361 365.673 363.987 366.099 363.585 366.499L415.636 405.528C415.905 405.033 416.211 404.559 416.551 404.11C417.63 402.676 418.981 401.468 420.528 400.556C422.074 399.644 423.785 399.045 425.563 398.793C427.341 398.541 429.152 398.642 430.891 399.089C432.63 399.537 434.264 400.322 435.699 401.4C436.15 401.737 436.577 402.106 436.977 402.503L540.796 263.592C540.293 263.313 539.808 263.002 539.344 262.662ZM436.598 322.538C433.055 319.878 430.38 316.228 428.912 312.05C427.445 307.872 427.25 303.352 428.353 299.064C429.457 294.775 431.808 290.91 435.11 287.956C438.413 285.002 442.518 283.093 446.906 282.469C451.294 281.846 455.769 282.536 459.765 284.453C463.761 286.37 467.098 289.428 469.354 293.239C471.61 297.051 472.685 301.445 472.441 305.866C472.198 310.287 470.648 314.537 467.987 318.078C466.216 320.427 463.999 322.405 461.463 323.897C458.926 325.39 456.12 326.368 453.205 326.776C450.29 327.185 447.322 327.015 444.473 326.277C441.624 325.539 438.948 324.247 436.598 322.475V322.538Z" fill="#D9D9D9" stroke="#727272" stroke-width="1.50459" stroke-linecap="round" stroke-linejoin="round"/>
<path d="M425.843 430.646L345.147 351.185L505.812 187.583L586.492 267.044L425.843 430.646Z" fill="#D9D9D9" stroke="#727272" stroke-width="1.50459" stroke-linecap="round" stroke-linejoin="round"/>
<path d="M558.983 279.298C556.4 276.755 554.934 273.291 554.907 269.668C554.881 266.045 556.296 262.561 558.841 259.98C559.244 259.582 559.671 259.208 560.118 258.861L513.793 213.167C513.446 213.61 513.078 214.036 512.689 214.443C510.143 217.023 506.676 218.488 503.049 218.514C499.423 218.541 495.934 217.128 493.351 214.585C493.149 214.386 492.96 214.176 492.783 213.955L371.441 337.723C371.646 337.913 371.866 338.086 372.072 338.291C374.654 340.834 376.12 344.297 376.147 347.92C376.174 351.543 374.759 355.028 372.213 357.608C371.803 358.002 371.377 358.38 370.936 358.727L417.261 404.421C417.605 403.966 417.979 403.534 418.381 403.129C419.641 401.852 421.139 400.835 422.792 400.137C424.444 399.439 426.219 399.073 428.013 399.059C429.807 399.046 431.587 399.386 433.249 400.06C434.912 400.734 436.426 401.729 437.703 402.988C438.102 403.39 438.476 403.817 438.823 404.264L560.276 280.401C559.824 280.059 559.392 279.69 558.983 279.298ZM449.17 324.834C446.018 321.726 443.859 317.755 442.966 313.421C442.073 309.087 442.487 304.587 444.154 300.488C445.821 296.389 448.668 292.876 452.333 290.392C455.999 287.909 460.319 286.567 464.748 286.536C469.177 286.505 473.516 287.787 477.216 290.219C480.916 292.651 483.811 296.124 485.535 300.2C487.259 304.275 487.735 308.77 486.903 313.115C486.071 317.461 483.967 321.462 480.859 324.614C478.793 326.708 476.335 328.375 473.624 329.52C470.913 330.664 468.003 331.264 465.06 331.284C462.117 331.305 459.199 330.746 456.473 329.639C453.746 328.532 451.265 326.9 449.17 324.834Z" fill="#D9D9D9" stroke="#727272" stroke-width="1.50459" stroke-linecap="round" stroke-linejoin="round"/>
<path d="M323.238 412.931L178.125 505.044L23.8168 261.572L168.929 169.459C171.467 167.849 174.54 167.312 177.474 167.965C180.408 168.618 182.963 170.407 184.576 172.941L326.787 397.3C327.582 398.559 328.12 399.962 328.372 401.429C328.624 402.896 328.584 404.399 328.255 405.85C327.925 407.302 327.312 408.674 326.451 409.889C325.591 411.104 324.499 412.138 323.238 412.931Z" fill="#D9D9D9" stroke="#727272" stroke-width="1.50459" stroke-linecap="round" stroke-linejoin="round"/>
<path d="M319.154 413.09L174.041 505.204L19.7484 261.732L164.861 169.618C167.399 168.009 170.472 167.471 173.406 168.124C176.34 168.777 178.894 170.567 180.508 173.1L322.702 397.46C323.497 398.719 324.036 400.122 324.288 401.589C324.54 403.056 324.5 404.558 324.17 406.01C323.841 407.461 323.228 408.834 322.367 410.049C321.506 411.264 320.414 412.297 319.154 413.09Z" fill="#D9D9D9" stroke="#727272" stroke-width="1.50459" stroke-linecap="round" stroke-linejoin="round"/>
<path d="M314.421 416.307L169.308 508.42L15.0002 264.948L160.113 172.835C162.653 171.224 165.729 170.687 168.665 171.339C171.602 171.992 174.159 173.782 175.775 176.317L317.97 400.676C318.765 401.935 319.304 403.338 319.556 404.805C319.807 406.272 319.767 407.775 319.438 409.226C319.108 410.678 318.496 412.05 317.635 413.265C316.774 414.48 315.682 415.514 314.421 416.307Z" fill="#D9D9D9" stroke="#727272" stroke-width="1.50459" stroke-linecap="round" stroke-linejoin="round"/>
<path d="M92.5407 295.213L81.3892 277.692L85.7425 274.998C86.5948 274.403 87.5921 274.049 88.629 273.973C89.5051 273.951 90.3624 274.229 91.0581 274.761C91.9036 275.394 92.6163 276.186 93.1559 277.093C93.7093 277.903 94.0657 278.831 94.1969 279.803C94.3151 280.659 94.1605 281.53 93.7553 282.293C93.2758 283.147 92.5794 283.859 91.7363 284.357L89.7962 285.57L94.9856 293.732L92.5407 295.213ZM88.6921 283.743L89.812 283.034C90.4113 282.701 90.9457 282.264 91.3893 281.742C91.5408 281.547 91.6499 281.324 91.7096 281.085C91.7694 280.846 91.7785 280.597 91.7363 280.355C91.5917 279.691 91.3126 279.064 90.9161 278.511C90.5278 277.85 90.056 277.241 89.5123 276.699C89.3368 276.525 89.1225 276.394 88.8869 276.317C88.6512 276.24 88.4007 276.22 88.1558 276.258C87.4419 276.428 86.7671 276.732 86.1684 277.156L85.017 277.881L88.6921 283.743Z" fill="#D9D9D9"/>
<path d="M101.169 289.729L93.7398 269.844L96.1058 268.347L110.996 283.49L108.677 284.955L105.065 281.063L101.5 283.332L103.456 288.28L101.169 289.729ZM100.727 281.299L103.645 279.456L97.1468 272.491L100.727 281.299Z" fill="#D9D9D9"/>
<path d="M117.036 279.927C116.172 280.524 115.153 280.858 114.102 280.888C113.146 280.876 112.214 280.586 111.421 280.053C110.521 279.443 109.741 278.674 109.118 277.784L110.916 275.83C111.349 276.395 111.83 276.922 112.351 277.406C112.797 277.839 113.337 278.162 113.929 278.351C114.238 278.417 114.558 278.417 114.868 278.352C115.177 278.287 115.47 278.158 115.727 277.973C116.003 277.824 116.245 277.618 116.435 277.368C116.626 277.118 116.761 276.83 116.831 276.524C116.905 275.875 116.73 275.221 116.342 274.696C115.943 273.996 115.329 273.444 114.591 273.12C113.844 272.852 113.073 272.657 112.288 272.537L107.698 271.812C106.869 271.695 106.074 271.405 105.364 270.961C104.627 270.447 104.008 269.781 103.55 269.008C103.169 268.481 102.902 267.882 102.763 267.248C102.625 266.613 102.619 265.957 102.745 265.321C103.101 264.06 103.94 262.99 105.08 262.343C105.694 261.94 106.371 261.642 107.083 261.46C107.689 261.311 108.322 261.311 108.928 261.46C109.564 261.638 110.158 261.938 110.679 262.343C111.312 262.852 111.884 263.434 112.383 264.076L110.663 265.967C110.283 265.45 109.855 264.97 109.386 264.533C108.993 264.158 108.5 263.907 107.966 263.808C107.365 263.769 106.768 263.926 106.265 264.256C105.761 264.586 105.378 265.07 105.174 265.636C105.114 265.942 105.119 266.258 105.19 266.562C105.26 266.866 105.395 267.152 105.585 267.4C105.855 267.862 106.234 268.252 106.689 268.535C107.176 268.805 107.712 268.976 108.266 269.039L112.887 269.764C113.981 269.916 115.045 270.235 116.042 270.709C117.108 271.235 118 272.056 118.613 273.073C119.12 273.847 119.423 274.735 119.496 275.657C119.534 276.488 119.337 277.312 118.929 278.036C118.461 278.811 117.811 279.46 117.036 279.927Z" fill="#D9D9D9"/>
<path d="M127.272 273.42C126.408 274.018 125.389 274.352 124.339 274.382C123.387 274.371 122.46 274.08 121.673 273.547C120.767 272.945 119.985 272.174 119.37 271.278L121.231 269.324C121.66 269.892 122.141 270.419 122.667 270.899C123.111 271.333 123.651 271.657 124.244 271.845C124.553 271.911 124.874 271.912 125.183 271.847C125.493 271.782 125.786 271.652 126.042 271.467C126.32 271.323 126.563 271.121 126.754 270.873C126.945 270.625 127.079 270.338 127.146 270.033C127.229 269.381 127.06 268.721 126.673 268.189C126.264 267.492 125.646 266.941 124.906 266.614C124.165 266.345 123.399 266.15 122.619 266.031L118.014 265.306C117.184 265.189 116.389 264.899 115.679 264.455C114.942 263.94 114.324 263.274 113.865 262.501C113.485 261.975 113.217 261.376 113.079 260.741C112.94 260.107 112.934 259.451 113.061 258.814C113.424 257.556 114.268 256.492 115.411 255.852C116.021 255.448 116.692 255.145 117.398 254.954C118.009 254.796 118.649 254.796 119.26 254.954C119.894 255.125 120.489 255.42 121.01 255.82C121.642 256.327 122.209 256.909 122.698 257.553L120.979 259.444C120.598 258.928 120.17 258.448 119.701 258.01C119.313 257.631 118.818 257.378 118.282 257.286C117.682 257.254 117.088 257.415 116.586 257.743C116.084 258.072 115.7 258.552 115.49 259.113C115.433 259.42 115.44 259.735 115.511 260.038C115.582 260.342 115.714 260.628 115.9 260.878C116.175 261.341 116.553 261.734 117.004 262.028C117.499 262.28 118.032 262.45 118.581 262.533L123.203 263.242C124.263 263.409 125.293 263.728 126.263 264.187C127.326 264.717 128.217 265.537 128.834 266.551C129.348 267.321 129.652 268.211 129.717 269.135C129.754 269.965 129.558 270.79 129.149 271.514C128.693 272.296 128.048 272.952 127.272 273.42Z" fill="#D9D9D9"/>
<path d="M133.252 269.352L122.1 251.831L126.453 249.073C127.301 248.468 128.3 248.108 129.34 248.033C130.215 248.018 131.07 248.295 131.769 248.821C132.615 249.46 133.327 250.257 133.867 251.169C134.427 251.976 134.784 252.905 134.908 253.879C135.026 254.729 134.871 255.595 134.466 256.353C133.991 257.209 133.294 257.922 132.447 258.417L130.507 259.646L135.697 267.792L133.252 269.352ZM129.403 257.897L130.523 257.172C131.126 256.845 131.661 256.407 132.1 255.88C132.25 255.685 132.357 255.461 132.414 255.222C132.471 254.983 132.477 254.735 132.431 254.493C132.287 253.832 132.013 253.206 131.627 252.65C131.243 251.99 130.771 251.385 130.223 250.854C130.048 250.679 129.833 250.548 129.598 250.471C129.362 250.394 129.112 250.374 128.867 250.412C128.151 250.567 127.474 250.868 126.879 251.295L125.728 252.035L129.403 257.897Z" fill="#D9D9D9"/>
<path d="M148.251 260.11C147.291 260.783 146.158 261.166 144.986 261.213C143.973 261.2 142.994 260.845 142.21 260.205C141.268 259.43 140.463 258.503 139.828 257.463L135.601 250.829C134.932 249.832 134.451 248.722 134.181 247.552C133.95 246.595 134.056 245.588 134.481 244.7C135.032 243.671 135.863 242.819 136.878 242.242C137.833 241.567 138.96 241.179 140.128 241.123C141.112 241.126 142.068 241.459 142.841 242.069C143.779 242.807 144.575 243.709 145.191 244.731L149.434 251.397C150.094 252.4 150.58 253.508 150.869 254.674C151.103 255.658 151.014 256.691 150.617 257.62C150.091 258.665 149.268 259.531 148.251 260.11ZM147.036 258.188C147.578 257.887 148.005 257.416 148.251 256.848C148.426 256.338 148.426 255.783 148.251 255.273C148.022 254.638 147.715 254.035 147.336 253.476L142.462 245.787C142.106 245.218 141.688 244.689 141.216 244.212C140.853 243.842 140.374 243.608 139.86 243.55C139.24 243.549 138.637 243.748 138.14 244.117C137.601 244.416 137.167 244.872 136.894 245.425C136.701 245.932 136.701 246.493 136.894 247C137.114 247.628 137.411 248.226 137.778 248.781L142.667 256.454C143.021 257.03 143.445 257.559 143.929 258.03C144.297 258.416 144.788 258.661 145.317 258.723C145.933 258.734 146.536 258.546 147.036 258.188Z" fill="#D9D9D9"/>
<path d="M155.318 255.353L144.166 237.831L147.7 235.578C148.655 234.927 149.726 234.461 150.854 234.207C151.758 234.028 152.697 234.173 153.504 234.617C154.44 235.199 155.216 236.006 155.76 236.965C156.169 237.58 156.492 238.248 156.722 238.95C156.934 239.54 157.004 240.171 156.927 240.793C156.832 241.374 156.581 241.919 156.201 242.369L164.277 249.57L161.927 251.067L154.403 244.307L152.495 245.505L157.715 253.73L155.318 255.353ZM151.422 243.819L152.353 243.236C152.959 242.893 153.494 242.439 153.93 241.896C154.241 241.469 154.377 240.939 154.308 240.415C154.185 239.714 153.91 239.047 153.504 238.461C153.07 237.641 152.377 236.988 151.532 236.602C151.061 236.526 150.579 236.553 150.118 236.681C149.658 236.809 149.231 237.035 148.867 237.343L147.778 238.02L151.422 243.819Z" fill="#D9D9D9"/>
<path d="M168.551 246.982L158.55 231.226L155.585 233.116L154.355 231.352L162.651 226.073L163.803 227.901L160.916 229.729L170.917 245.485L168.551 246.982Z" fill="#D9D9D9"/>
<path d="M231.367 355.985C238.263 326.451 219.886 296.924 190.321 290.034C160.756 283.145 131.199 301.503 124.302 331.037C117.406 360.571 135.783 390.098 165.348 396.987C194.913 403.877 224.47 385.519 231.367 355.985Z" stroke="#D9D9D9" stroke-width="1.50459" stroke-miterlimit="10"/>
<path d="M207.288 389.883C218.271 382.909 213.974 356.507 197.689 330.912C181.404 305.317 159.299 290.222 148.315 297.196C137.331 304.17 141.629 330.572 157.913 356.167C174.198 381.762 196.304 396.857 207.288 389.883Z" stroke="#D9D9D9" stroke-width="1.50459" stroke-miterlimit="10"/>
<path d="M128.677 319.634L177.337 288.72" stroke="#D9D9D9" stroke-width="1.50459" stroke-miterlimit="10"/>
<path d="M123.187 350.941L208.047 297.069" stroke="#D9D9D9" stroke-width="1.50459" stroke-miterlimit="10"/>
<path d="M147.872 389.733L232.732 335.845" stroke="#D9D9D9" stroke-width="1.50459" stroke-miterlimit="10"/>
<path d="M131.326 373.033L224.608 313.788" stroke="#D9D9D9" stroke-width="1.50459" stroke-miterlimit="10"/>
<path d="M179.04 398.783L227.7 367.884" stroke="#D9D9D9" stroke-width="1.50459" stroke-miterlimit="10"/>
<path d="M433.999 645.617C502.792 576.896 502.792 465.477 433.999 396.757C365.207 328.036 253.672 328.036 184.88 396.757C116.087 465.477 116.087 576.896 184.88 645.617C253.672 714.337 365.207 714.337 433.999 645.617Z" fill="#D9D9D9" stroke="#727272" stroke-width="1.50459" stroke-linecap="round" stroke-linejoin="round"/>
<path d="M274.059 684C283.503 686.053 293.109 687.276 302.766 687.656" stroke="#D9D9D9" stroke-width="1.50459" stroke-linecap="round" stroke-linejoin="round"/>
<path d="M252.466 677.737C257.251 679.47 262.109 680.993 267.04 682.306" stroke="#D9D9D9" stroke-width="1.50459" stroke-linecap="round" stroke-linejoin="round"/>
<path d="M149.042 475.615C137.834 515.055 141.572 557.237 159.541 594.097C177.51 630.956 208.448 659.906 246.441 675.41" stroke="#D9D9D9" stroke-width="1.50459" stroke-linecap="round" stroke-linejoin="round"/>
<path d="M171.455 427.7C165.431 436.57 160.276 446 156.06 455.857" stroke="#D9D9D9" stroke-width="1.50459" stroke-linecap="round" stroke-linejoin="round"/>
<path d="M285.558 443.032L303.524 446.751L309.644 453.085L317.625 454.314L320.164 461.877L318.303 466.998L312.861 469.488L299.533 467.313L299.17 465.69L305.464 461.294L301.11 453.274L289.186 451.635L282.845 446.199L285.558 443.032Z" fill="#D9D9D9"/>
<path d="M430.291 608.567L416.095 606.171L398.839 603.997L386.221 606.802L373.839 606.975L361.425 612.726L354.17 614.775L349.674 615.767L342.198 622.558L334.753 627.632L322.134 623.141L322.45 611.088L314.879 609.78L306.724 611.592L304.674 608.188L303.869 600.672L300.099 597.237L294.563 599.317L293.837 603.761L286.992 605.699L279.232 599.727L274.61 590.478L278.206 577.699L290.21 575.887L294.121 578.03L299.011 576.943L304.327 571.916L309.989 572.358L320.147 583.387L322.907 582.347L320.005 573.145L316.472 568.797L315.573 560.918L329.217 551.055L327.907 535.519L333.254 528.759L336.409 518.202L340.321 516.484L348.334 508.291L348.018 504.935L341.583 506.794L339.643 503.8L335.147 504.793L328.57 507.944L330.652 501.91L344.027 494.661L346.488 490.281L354.185 497.97L358.681 500.838L364.028 497.939L360.4 493.212L350.479 488.989L338.239 480.165L326.488 475.438L316.33 475.99L310.51 472.161L303.569 471.956L303.112 473.768L304.926 485.775L307.465 489.477L306.693 503.343L297.071 498.616V492.629L287.607 490.454L282.875 486.783L282.639 476.147L292.576 464.96L291.219 454.986L286.818 456.388L283.143 453.363L280.541 447.565L277.591 447.785L277.386 454.624L273.08 456.436L267.922 442.664L264.216 441.357L257.906 440.175L252.102 444.902L261.992 450.842L265.146 457.413L248.001 449.66L235.382 440.915L232.117 430.091L220.776 429.177L213.805 436.283C212.089 437.92 210.288 439.466 208.41 440.915C205.351 442.407 202.188 443.676 198.946 444.713L198.852 452.008L189.546 454.498L191.36 458.799L207.006 457.901L216.66 464.74L219.814 479.015L218.127 492.645L221.928 505.912L214.94 528.428L219.12 558.728L226.597 575.036L234.799 586.917L241.108 586.365L237.606 580.299L233.269 576.123L229.231 567.615L232.717 566.039L241.692 579.448L248.679 591.597L251.029 602.201L260.872 609.859L277.102 616.918L299.595 617.91L307.481 622.637L313.79 628.073L322.134 630.925L331.598 631.382L340.479 628.971C340.479 628.971 340.983 633.147 341.425 635.18C341.867 637.212 337.702 645.421 337.702 645.421L335.037 654.576L340.289 662.817L350.084 664.487L365.637 674.729L371.946 675.911L373.302 682.024L374.643 684.719C405.259 672.555 431.826 652.023 451.3 625.473L450.859 622.464L457.436 600.042L451.316 597.553L430.291 608.567Z" fill="#D9D9D9"/>
<path d="M436.931 438.112L430.717 431.369L423.004 423.664L418.666 411.799L426.284 411.389L425.78 407.229L420.385 408.001L424.423 404.96L428.682 401.021L427.783 396.94L421.474 391.504L418.477 382.964C388.312 359.234 351.216 345.995 312.828 345.258C274.44 344.521 236.862 356.328 205.808 378.883L216.691 383.453L212.622 392.071L205.224 395.412L206.802 406.599L203.82 408.553L200.666 413.942L202.7 421.19L209.83 420.465L208.505 428.028L215.445 426.453L223.931 408.742L223.71 401.935L234.957 398.595L236.723 393.064L248.285 389.22L247.969 382.019L256.439 379.703C256.439 379.703 261.85 375.086 263.064 374.818C265.539 374.796 268.012 374.959 270.462 375.306L277.67 378.852L286.235 376.945L292.544 370.831L302.103 369.571C303.648 370.167 305.314 370.383 306.961 370.201C308.995 369.744 314.485 365.474 314.485 365.474L327.955 370.201L333.665 372.785L335.021 378.899L341.33 378.347L342.561 374.235L348.412 375.495L348.728 378.852L337.198 384.839L346.141 392.261L362.64 397.161L370.526 403.952L379.691 402.77L380.826 398.248L383.902 396.672L371.489 390.874L364.769 391.504L369.706 388.7L363.271 382.854L370.116 380.916L380.195 383.815L384.407 393.143L390.069 397.444L396.378 408.474L406.805 412.996L409.786 426.453L420.543 430.486L421.127 435.056V440.634L425.212 447.425L426.789 450.923L433.997 450.608L435.732 442.95L436.931 438.112Z" fill="#D9D9D9"/>
<path d="M433.099 395.865L433.619 398.213L433.035 405.178L435.528 410.614L440.386 411.26L442.105 418.996L436.758 418.051L440.417 440.331L437.515 450.399L443.319 461.082L449.708 464.801L454.613 486.86L463.714 502.806L472.326 514.592L482.263 514.954L483.714 506.068L484.819 504.744C484.126 497.427 482.983 490.16 481.396 482.984C474.073 449.888 457.296 419.626 433.099 395.865Z" fill="#D9D9D9"/>
<path d="M338.255 414.225L308.696 408.379L296.945 411.42L295.81 419.787L289.737 415.58L281.219 419.614L283.38 433.243L291.914 436.915L295.494 427.996L302.986 432.755L318.081 440.948L323.16 452.23L336.757 463.323L353.255 456.673L351.489 450.654L346.284 444.525L341.836 428.406L344.375 420.575L338.255 414.225Z" fill="#D9D9D9"/>
<path d="M362.294 418.305L355.811 418.037L351.505 423.694L356.978 434.881L362.294 433.7V418.305Z" fill="#D9D9D9"/>
<path d="M401.962 417.628L386.457 413.374L382.514 409.12L379.517 411.058L384.186 418.574L388.997 428.642L395.669 429.729L396.521 427.823L391.489 422.529L403.003 424.246L401.962 417.628Z" fill="#D9D9D9"/>
<path d="M315.51 591.25L314.248 593.235L327.308 594.196L333.476 598.813L341.409 597.915L343.271 592.794L333.523 593.235L315.51 591.25Z" fill="#D9D9D9"/>
<path d="M353.555 590.935L345.526 595.283L347.482 598.277L358.097 595.914L359.406 592.211L355.826 593.424L353.555 590.935Z" fill="#D9D9D9"/>
<path d="M285.558 443.032L303.524 446.751L309.644 453.085L317.625 454.314L320.164 461.877L318.303 466.998L312.861 469.488L299.533 467.313L299.17 465.69L305.464 461.294L301.11 453.274L289.186 451.635L282.845 446.199L285.558 443.032Z" stroke="#D9D9D9" stroke-width="1.50459" stroke-linecap="round" stroke-linejoin="round"/>
<path d="M430.291 608.567L416.095 606.171L398.839 603.997L386.221 606.802L373.839 606.975L361.425 612.726L354.17 614.775L349.674 615.767L342.198 622.558L334.753 627.632L322.134 623.141L322.45 611.088L314.879 609.78L306.724 611.592L304.674 608.188L303.869 600.672L300.099 597.237L294.563 599.317L293.837 603.761L286.992 605.699L279.232 599.727L274.61 590.478L278.206 577.699L290.21 575.887L294.121 578.03L299.011 576.943L304.327 571.916L309.989 572.358L320.147 583.387L322.907 582.347L320.005 573.145L316.472 568.797L315.573 560.918L329.217 551.055L327.907 535.519L333.254 528.759L336.409 518.202L340.321 516.484L348.334 508.291L348.018 504.935L341.583 506.794L339.643 503.8L335.147 504.793L328.57 507.944L330.652 501.91L344.027 494.661L346.488 490.281L354.185 497.97L358.681 500.838L364.028 497.939L360.4 493.212L350.479 488.989L338.239 480.165L326.488 475.438L316.33 475.99L310.51 472.161L303.569 471.956L303.112 473.768L304.926 485.775L307.465 489.477L306.693 503.343L297.071 498.616V492.629L287.607 490.454L282.875 486.783L282.639 476.147L292.576 464.96L291.219 454.986L286.818 456.388L283.143 453.363L280.541 447.565L277.591 447.785L277.386 454.624L273.08 456.436L267.922 442.664L264.216 441.357L257.906 440.175L252.102 444.902L261.992 450.842L265.146 457.413L248.001 449.66L235.382 440.915L232.117 430.091L220.776 429.177L213.805 436.283C212.089 437.92 210.288 439.466 208.41 440.915C205.351 442.407 202.188 443.676 198.946 444.713L198.852 452.008L189.546 454.498L191.36 458.799L207.006 457.901L216.66 464.74L219.814 479.015L218.127 492.645L221.928 505.912L214.94 528.428L219.12 558.728L226.597 575.036L234.799 586.917L241.108 586.365L237.606 580.299L233.269 576.123L229.231 567.615L232.717 566.039L241.692 579.448L248.679 591.597L251.029 602.201L260.872 609.859L277.102 616.918L299.595 617.91L307.481 622.637L313.79 628.073L322.134 630.925L331.598 631.382L340.479 628.971C340.479 628.971 340.983 633.147 341.425 635.18C341.867 637.212 337.702 645.421 337.702 645.421L335.037 654.576L340.289 662.817L350.084 664.487L365.637 674.729L371.946 675.911L373.302 682.024L374.643 684.719C405.259 672.555 431.826 652.023 451.3 625.473L450.859 622.464L457.436 600.042L451.316 597.553L430.291 608.567Z" stroke="#D9D9D9" stroke-width="1.50459" stroke-linecap="round" stroke-linejoin="round"/>
<path d="M436.931 438.112L430.717 431.369L423.004 423.664L418.666 411.799L426.284 411.389L425.78 407.229L420.385 408.001L424.423 404.96L428.682 401.021L427.783 396.94L421.474 391.504L418.477 382.964C388.312 359.234 351.216 345.995 312.828 345.258C274.44 344.521 236.862 356.328 205.808 378.883L216.691 383.453L212.622 392.071L205.224 395.412L206.802 406.599L203.82 408.553L200.666 413.942L202.7 421.19L209.83 420.465L208.505 428.028L215.445 426.453L223.931 408.742L223.71 401.935L234.957 398.595L236.723 393.064L248.285 389.22L247.969 382.019L256.439 379.703C256.439 379.703 261.85 375.086 263.064 374.818C265.539 374.796 268.012 374.959 270.462 375.306L277.67 378.852L286.235 376.945L292.544 370.831L302.103 369.571C303.648 370.167 305.314 370.383 306.961 370.201C308.995 369.744 314.485 365.474 314.485 365.474L327.955 370.201L333.665 372.785L335.021 378.899L341.33 378.347L342.561 374.235L348.412 375.495L348.728 378.852L337.198 384.839L346.141 392.261L362.64 397.161L370.526 403.952L379.691 402.77L380.826 398.248L383.902 396.672L371.489 390.874L364.769 391.504L369.706 388.7L363.271 382.854L370.116 380.916L380.195 383.815L384.407 393.143L390.069 397.444L396.378 408.474L406.804 412.996L409.786 426.453L420.543 430.486L421.127 435.056V440.634L425.212 447.425L426.789 450.923L433.997 450.608L435.732 442.95L436.931 438.112Z" stroke="#D9D9D9" stroke-width="1.50459" stroke-linecap="round" stroke-linejoin="round"/>
<path d="M433.099 395.865L433.619 398.213L433.035 405.178L435.528 410.614L440.386 411.26L442.105 418.996L436.758 418.051L440.417 440.331L437.515 450.399L443.319 461.082L449.708 464.801L454.613 486.86L463.714 502.806L472.326 514.592L482.263 514.954L483.714 506.068L484.819 504.744C484.126 497.427 482.983 490.16 481.396 482.984C474.073 449.888 457.296 419.626 433.099 395.865Z" stroke="#D9D9D9" stroke-width="1.50459" stroke-linecap="round" stroke-linejoin="round"/>
<path d="M338.255 414.225L308.696 408.379L296.945 411.42L295.81 419.787L289.737 415.58L281.219 419.614L283.38 433.243L291.914 436.915L295.494 427.996L302.986 432.755L318.081 440.948L323.16 452.23L336.757 463.323L353.255 456.673L351.489 450.654L346.284 444.525L341.836 428.406L344.375 420.575L338.255 414.225Z" stroke="#D9D9D9" stroke-width="1.50459" stroke-linecap="round" stroke-linejoin="round"/>
<path d="M362.294 418.305L355.811 418.037L351.505 423.694L356.978 434.881L362.294 433.7V418.305Z" stroke="#D9D9D9" stroke-width="1.50459" stroke-linecap="round" stroke-linejoin="round"/>
<path d="M401.962 417.628L386.457 413.374L382.514 409.12L379.517 411.058L384.186 418.574L388.997 428.642L395.669 429.729L396.521 427.823L391.489 422.529L403.003 424.246L401.962 417.628Z" stroke="#D9D9D9" stroke-width="1.50459" stroke-linecap="round" stroke-linejoin="round"/>
<path d="M315.51 591.25L314.248 593.235L327.308 594.196L333.476 598.813L341.409 597.915L343.271 592.794L333.523 593.235L315.51 591.25Z" stroke="#D9D9D9" stroke-width="1.50459" stroke-linecap="round" stroke-linejoin="round"/>
<path d="M353.555 590.935L345.526 595.283L347.482 598.277L358.097 595.914L359.406 592.211L355.826 593.424L353.555 590.935Z" stroke="#D9D9D9" stroke-width="1.50459" stroke-linecap="round" stroke-linejoin="round"/>
<path d="M473.32 401.862C470.114 401.862 466.939 402.494 463.977 403.721C461.015 404.948 458.325 406.747 456.06 409.014C453.795 411.281 452 413.972 450.777 416.933C449.555 419.894 448.928 423.066 448.935 426.269C448.935 439.726 473.32 466.874 473.32 466.874C473.32 466.874 497.721 439.726 497.721 426.269C497.725 423.066 497.097 419.893 495.873 416.932C494.648 413.971 492.851 411.28 490.585 409.013C488.319 406.746 485.628 404.948 482.665 403.721C479.703 402.494 476.527 401.862 473.32 401.862ZM473.32 436.952C471.191 436.962 469.108 436.339 467.335 435.164C465.561 433.988 464.177 432.313 463.358 430.35C462.539 428.388 462.322 426.226 462.735 424.14C463.148 422.055 464.172 420.138 465.677 418.635C467.182 417.131 469.101 416.108 471.189 415.696C473.277 415.283 475.44 415.5 477.405 416.318C479.37 417.136 481.047 418.518 482.224 420.29C483.4 422.062 484.023 424.143 484.014 426.269C484.006 429.1 482.876 431.813 480.873 433.814C478.869 435.816 476.154 436.944 473.32 436.952Z" fill="#D9D9D9" stroke="#727272" stroke-width="1.50459" stroke-miterlimit="10"/>
<path d="M284.09 464.398C278.447 464.398 273.035 466.638 269.044 470.624C265.054 474.61 262.812 480.017 262.812 485.654C262.812 497.393 284.09 521.075 284.09 521.075C284.09 521.075 305.368 497.44 305.368 485.654C305.368 480.017 303.126 474.61 299.136 470.624C295.146 466.638 289.733 464.398 284.09 464.398ZM284.09 495.014C282.237 495.014 280.426 494.465 278.885 493.436C277.344 492.408 276.143 490.946 275.434 489.236C274.725 487.526 274.539 485.644 274.901 483.828C275.262 482.013 276.155 480.345 277.465 479.036C278.775 477.727 280.445 476.836 282.262 476.474C284.08 476.113 285.964 476.299 287.676 477.007C289.388 477.715 290.851 478.915 291.88 480.454C292.91 481.993 293.459 483.803 293.459 485.654C293.459 488.136 292.472 490.517 290.715 492.272C288.958 494.028 286.575 495.014 284.09 495.014Z" fill="#D9D9D9" stroke="#727272" stroke-width="1.50459" stroke-miterlimit="10"/>
<path d="M364.549 630.157C361.711 630.157 358.99 631.282 356.982 633.285C354.974 635.288 353.843 638.005 353.839 640.84C353.839 646.749 364.549 658.661 364.549 658.661C364.549 658.661 375.243 646.749 375.243 640.84C375.239 638.008 374.111 635.293 372.106 633.291C370.102 631.288 367.384 630.161 364.549 630.157ZM364.549 645.551C363.613 645.551 362.698 645.274 361.92 644.755C361.142 644.235 360.535 643.497 360.177 642.633C359.819 641.77 359.725 640.819 359.908 639.902C360.091 638.985 360.541 638.143 361.203 637.482C361.865 636.821 362.708 636.371 363.626 636.188C364.544 636.006 365.495 636.099 366.36 636.457C367.225 636.815 367.964 637.421 368.483 638.198C369.003 638.976 369.281 639.889 369.281 640.824C369.281 641.445 369.159 642.06 368.921 642.633C368.683 643.207 368.334 643.728 367.895 644.167C367.456 644.606 366.934 644.954 366.36 645.192C365.786 645.429 365.17 645.551 364.549 645.551Z" fill="#D9D9D9" stroke="#727272" stroke-width="1.50459" stroke-miterlimit="10"/>
<path d="M231.454 531.442C228.617 531.446 225.897 532.575 223.891 534.581C221.886 536.587 220.76 539.306 220.76 542.141C220.76 548.05 231.454 559.962 231.454 559.962C231.454 559.962 242.164 548.05 242.164 542.141C242.164 539.304 241.036 536.582 239.027 534.576C237.019 532.569 234.295 531.442 231.454 531.442ZM231.454 546.852C230.518 546.852 229.604 546.575 228.825 546.056C228.047 545.536 227.441 544.798 227.083 543.934C226.724 543.07 226.631 542.12 226.813 541.203C226.996 540.286 227.447 539.444 228.108 538.783C228.77 538.122 229.613 537.672 230.531 537.489C231.449 537.307 232.401 537.4 233.265 537.758C234.13 538.116 234.869 538.722 235.389 539.499C235.909 540.276 236.186 541.19 236.186 542.125C236.186 543.379 235.688 544.581 234.8 545.468C233.913 546.354 232.709 546.852 231.454 546.852Z" fill="#D9D9D9" stroke="#727272" stroke-width="1.50459" stroke-miterlimit="10"/>
<path d="M269.311 576.441C267.905 576.441 266.513 576.718 265.215 577.256C263.916 577.793 262.737 578.582 261.744 579.575C260.75 580.569 259.963 581.749 259.426 583.047C258.89 584.345 258.615 585.735 258.617 587.14C258.617 593.048 269.311 604.961 269.311 604.961C269.311 604.961 280.021 593.048 280.021 587.14C280.021 584.302 278.893 581.581 276.884 579.575C274.876 577.568 272.152 576.441 269.311 576.441ZM269.311 591.851C268.375 591.851 267.46 591.574 266.682 591.054C265.904 590.535 265.297 589.797 264.939 588.933C264.581 588.069 264.487 587.119 264.67 586.202C264.853 585.285 265.303 584.443 265.965 583.781C266.627 583.12 267.47 582.67 268.388 582.488C269.306 582.305 270.257 582.399 271.122 582.757C271.987 583.115 272.726 583.72 273.246 584.498C273.765 585.275 274.043 586.189 274.043 587.124C274.043 588.378 273.544 589.58 272.657 590.466C271.77 591.353 270.566 591.851 269.311 591.851Z" fill="#D9D9D9" stroke="#727272" stroke-width="1.50459" stroke-miterlimit="10"/>
<path d="M402.262 596.641C400.594 596.641 398.943 596.969 397.403 597.607C395.862 598.244 394.462 599.178 393.283 600.356C392.104 601.534 391.169 602.932 390.531 604.471C389.893 606.01 389.564 607.66 389.564 609.325C389.564 616.321 402.262 630.439 402.262 630.439C402.262 630.439 414.88 616.258 414.88 609.325C414.891 607.663 414.572 606.016 413.942 604.477C413.313 602.939 412.385 601.54 411.212 600.361C410.04 599.182 408.645 598.247 407.109 597.608C405.573 596.97 403.925 596.641 402.262 596.641ZM402.262 614.903C401.153 614.906 400.068 614.581 399.145 613.967C398.222 613.354 397.501 612.48 397.076 611.457C396.65 610.435 396.538 609.309 396.753 608.222C396.969 607.136 397.502 606.138 398.287 605.354C399.071 604.571 400.07 604.038 401.157 603.823C402.245 603.607 403.372 603.719 404.396 604.145C405.42 604.57 406.294 605.29 406.908 606.212C407.522 607.134 407.848 608.218 407.845 609.325C407.845 610.058 407.701 610.783 407.42 611.46C407.14 612.137 406.728 612.752 406.21 613.27C405.691 613.787 405.076 614.198 404.398 614.479C403.721 614.759 402.995 614.903 402.262 614.903Z" fill="#D9D9D9" stroke="#727272" stroke-width="1.50459" stroke-miterlimit="10"/>
<path d="M401.332 354.291C398.345 354.291 395.481 355.476 393.369 357.586C391.257 359.696 390.07 362.557 390.07 365.541C390.07 371.844 401.332 384.307 401.332 384.307C401.332 384.307 412.61 371.702 412.61 365.541C412.606 362.556 411.416 359.694 409.301 357.585C407.187 355.476 404.32 354.291 401.332 354.291ZM401.332 370.504C400.349 370.504 399.389 370.213 398.572 369.668C397.755 369.123 397.118 368.347 396.742 367.44C396.366 366.534 396.267 365.536 396.459 364.573C396.651 363.61 397.124 362.726 397.819 362.031C398.514 361.337 399.399 360.865 400.363 360.673C401.327 360.482 402.326 360.58 403.234 360.955C404.141 361.331 404.917 361.967 405.463 362.784C406.009 363.6 406.301 364.559 406.301 365.541C406.301 366.857 405.777 368.12 404.845 369.051C403.914 369.981 402.65 370.504 401.332 370.504Z" fill="#D9D9D9" stroke="#727272" stroke-width="1.50459" stroke-miterlimit="10"/>
<path d="M208.442 424.689C206.962 424.687 205.496 424.976 204.128 425.541C202.759 426.105 201.516 426.934 200.469 427.979C199.421 429.024 198.59 430.264 198.023 431.63C197.456 432.996 197.164 434.461 197.164 435.939C197.164 442.163 208.442 454.706 208.442 454.706C208.442 454.706 219.704 442.1 219.704 435.939C219.704 432.956 218.518 430.094 216.406 427.984C214.294 425.874 211.429 424.689 208.442 424.689ZM208.442 440.903C207.459 440.906 206.497 440.617 205.678 440.074C204.858 439.53 204.219 438.756 203.841 437.85C203.462 436.943 203.362 435.945 203.552 434.981C203.741 434.017 204.213 433.131 204.908 432.435C205.602 431.74 206.487 431.265 207.451 431.073C208.416 430.88 209.415 430.977 210.324 431.352C211.233 431.728 212.01 432.364 212.557 433.18C213.103 433.997 213.395 434.957 213.395 435.939C213.395 437.253 212.874 438.513 211.945 439.443C211.017 440.374 209.757 440.899 208.442 440.903Z" fill="#D9D9D9" stroke="#727272" stroke-width="1.50459" stroke-miterlimit="10"/>
<path d="M342.152 182.241C342.152 182.241 341.174 270.951 341.174 285.604C341.174 300.258 339.959 314.439 339.959 314.439C339.959 314.439 344.36 317.59 343.619 321.278C342.797 324.403 341.65 327.435 340.196 330.322C338.514 329.943 336.779 329.863 335.07 330.086C333.35 330.574 323.082 335.206 321.363 335.206C319.644 335.206 318.918 336.672 318.429 332.055C317.896 327.923 317.733 323.752 317.94 319.592C318.246 315.878 318.821 312.192 319.659 308.562L309.375 196.406L306.93 305.631C306.93 305.631 307.419 312.233 308.161 313.51C309.133 315.258 309.794 317.161 310.117 319.135C310.117 320.348 307.908 331.835 306.962 332.323C306.016 332.811 303.05 334.529 303.05 334.529C303.05 334.529 301.094 334.04 298.397 330.621C295.7 327.202 289.359 327.47 288.129 327.927L286.899 328.415C286.899 328.415 283.239 324.019 282.498 320.836C281.756 317.654 286.662 317.417 286.41 308.861C286.157 300.305 278.807 227.73 278.807 227.73L277.088 178.884L342.641 176.931L342.152 182.241Z" fill="#D9D9D9" stroke="#727272" stroke-width="1.50459" stroke-miterlimit="10"/>
<path d="M316.473 68.8561L290.306 70.5736L289.328 182.241C289.328 182.241 291.284 183.959 307.419 184.195C323.555 184.431 326.994 182.493 326.994 182.493L316.473 68.8561Z" fill="#D9D9D9" stroke="#727272" stroke-width="1.50459" stroke-miterlimit="10"/>
<path d="M314.864 13.8635C314.864 13.8635 321.268 22.8921 321.173 24.2629C320.993 25.6119 320.729 26.9485 320.385 28.2651C320.385 28.2651 327.356 35.4502 326.694 36.0332L322.814 39.3421C322.814 39.3421 322.924 46.0702 322.924 47.1101C322.924 48.1501 324.407 50.7657 323.949 51.8371C323.421 53.0066 322.689 54.0734 321.789 54.9885C320.984 55.666 315.148 55.5557 315.148 55.5557L315.038 64.8049C315.038 64.8049 316.063 70.6348 315.148 72.6832C314.233 74.7316 311.599 76.3388 304.974 76.6854C298.35 77.0321 295.116 74.7789 293.176 73.1717C291.236 71.5645 291.488 56.8162 291.362 54.5315C291.236 52.2468 291.141 47.898 289.88 45.9599C288.618 44.0218 280.416 30.2032 279.028 26.7682C277.64 23.3333 277.529 19.8038 280.163 16.7312C282.797 13.6587 286.11 12.2721 286.473 10.5546C286.835 8.83714 286.473 7.13543 288.98 6.33183C290.806 5.85232 292.709 5.73456 294.58 5.98519C294.58 5.98519 299.391 0.17097 301.899 0.848508L304.422 1.52605C304.422 1.52605 311.394 -0.412027 315.053 2.67628C318.713 5.76459 319.438 10.6649 314.864 13.8635Z" fill="#D9D9D9" stroke="#727272" stroke-width="1.50459" stroke-miterlimit="10"/>
<path d="M316.173 30.0104C316.173 31.46 316.614 32.6418 317.182 32.6418C317.75 32.6418 318.192 31.46 318.192 30.0104C318.192 28.5608 317.734 27.3633 317.182 27.3633C316.63 27.3633 316.173 28.545 316.173 30.0104Z" fill="#D9D9D9" stroke="#727272" stroke-width="1.50459" stroke-miterlimit="10"/>
<path d="M286.394 10.5546C286.725 8.83714 286.394 7.13543 288.901 6.33183C290.727 5.85232 292.63 5.73456 294.501 5.98519C294.501 5.98519 299.312 0.17097 301.82 0.848508L304.343 1.52605C304.343 1.52605 311.315 -0.412027 314.974 2.67628C318.634 5.76459 319.438 10.6649 314.864 13.8635C314.864 13.8635 302.245 15.2344 303.823 17.5191C305.4 19.8038 306.11 21.6316 304.864 22.2461C303.618 22.8606 297.892 25.7756 298.46 27.1464C299.028 28.5172 299.596 32.1728 298.807 32.4091C298.018 32.6455 298.113 32.1728 295.652 30.345C293.192 28.5172 290.384 29.8881 290.053 33.4963C289.926 34.8094 290.238 36.1276 290.94 37.245C291.642 38.3624 292.694 39.2161 293.933 39.673C295.195 39.8936 294.501 44.4 292.103 46.0702C291.553 46.436 290.96 46.7323 290.337 46.9526C290.201 46.5631 290.027 46.1884 289.816 45.8338C288.554 43.8958 280.352 30.0772 278.964 26.6422C277.576 23.2072 277.466 19.6777 280.1 16.6052C282.734 13.5326 286.047 12.2721 286.394 10.5546Z" fill="#D9D9D9" stroke="#727272" stroke-width="1.50459" stroke-miterlimit="10"/>
<path d="M321.551 42.8729C321.551 42.8729 316.409 43.7868 313.443 40.147" stroke="#D9D9D9" stroke-width="1.50459" stroke-miterlimit="10"/>
<path d="M315.084 55.5557L304.563 52.2311L314.847 62.6305L315.084 55.5557Z" fill="#D9D9D9" stroke="#727272" stroke-width="1.50459" stroke-miterlimit="10"/>
<path d="M318.635 24.1965C318.635 24.1965 314.912 22.1639 312.751 25.2207" stroke="#D9D9D9" stroke-width="1.50459" stroke-miterlimit="10"/>
<path d="M343.019 111.394C343.019 111.394 357.293 135.281 357.688 139.898C358.082 144.515 350.164 160.382 347.845 160.902C345.527 161.422 338.965 153.969 338.208 150.88C337.451 147.792 336.268 112.938 337.624 109.913C338.981 106.888 343.019 111.394 343.019 111.394Z" fill="#D9D9D9" stroke="#727272" stroke-width="1.50459" stroke-miterlimit="10"/>
<path d="M319.343 68.5875L333.034 69.6275C333.034 69.6275 340.574 67.8785 342.845 68.5875C345.116 69.2966 377.404 81.7286 380.921 84.1866C384.439 86.6447 383.903 95.563 383.019 99.25C382.716 100.536 382.007 101.691 380.995 102.542C379.984 103.394 378.724 103.897 377.404 103.977C375.827 104.15 343.208 102.055 343.208 102.055L351.615 187.393L334.075 193.065L321.63 194.641L315.479 88.2676L319.343 68.5875Z" fill="#D9D9D9" stroke="#727272" stroke-width="1.50459" stroke-miterlimit="10"/>
<path d="M314.863 62.6462L319.343 68.5865C319.343 68.5865 319.863 77.5205 318.649 81.1918C317.791 83.6672 316.736 86.0699 315.494 88.3769L309.879 75.4091C312.287 71.4851 313.975 67.163 314.863 62.6462Z" fill="#D9D9D9" stroke="#727272" stroke-width="1.50459" stroke-miterlimit="10"/>
<path d="M293.16 91.67L294.737 195.018C294.737 195.018 279.311 193.285 274.232 191.158C271.338 189.95 268.506 188.599 265.746 187.108C265.746 187.108 270.762 149.292 270.951 146.267C271.141 143.242 271.141 140.673 271.141 140.673C271.141 140.673 259.768 144.723 255.525 143.383C251.282 142.044 250.699 137.601 251.093 132.007C251.317 128.913 251.349 125.808 251.188 122.711C251.188 121.749 252.339 105.788 256.977 93.8444C261.614 81.9008 258.806 81.5227 262.087 79.4113C265.368 77.2999 289.28 68.807 289.28 68.807L291.977 74.4006L293.16 91.67Z" fill="#D9D9D9" stroke="#727272" stroke-width="1.50459" stroke-miterlimit="10"/>
<path d="M274.943 74.5914C274.943 74.5914 278.413 115.433 274.359 128.92L268.05 129.125C268.444 133.852 271.315 125.454 272.088 99.8336C272.419 88.804 267.466 77.0967 267.466 77.0967C269.893 76.0781 272.392 75.2407 274.943 74.5914Z" fill="#D9D9D9" stroke="#727272" stroke-width="1.50459" stroke-miterlimit="10"/>
<path d="M291.803 63.2784C291.803 63.2784 294.09 69.0611 295.478 72.0391C296.866 75.0171 297.891 76.9552 297.891 76.9552L293.159 91.6719C291.188 86.227 289.736 80.6085 288.822 74.891C288.112 68.226 287.481 69.2501 287.481 69.2501C287.481 69.2501 290.572 62.0493 291.803 63.2784Z" fill="#D9D9D9" stroke="#727272" stroke-width="1.50459" stroke-miterlimit="10"/>
<path d="M339.344 44.0085C337.926 43.5244 336.57 42.8738 335.306 42.0704C334.249 41.2038 332.151 37.8634 331.442 37.1701C330.732 36.4768 327.262 37.6901 326.71 36.0356C326.158 34.3812 325.763 32.6794 327.845 33.1679C329.904 33.5371 331.986 33.7583 334.076 33.8297L330.779 23.0679H345.906C345.906 23.0679 350.29 37.9737 350.29 39.187C350.168 40.5479 349.935 41.8968 349.596 43.2207C349.596 43.2207 370.291 66.3515 374.676 72.1342C379.061 77.9169 384.502 85.811 385.039 88.789C385.575 91.767 383.982 101.221 380.307 102.45C376.632 103.679 373.288 102.277 369.439 98.6054C365.59 94.9341 353.997 71.2676 353.477 70.3852C352.956 69.5028 344.013 47.4277 343.476 46.7502C342.181 45.7189 340.798 44.8016 339.344 44.0085Z" fill="#D9D9D9" stroke="#727272" stroke-width="1.50459" stroke-miterlimit="10"/>
<path d="M331.646 69.7699C331.646 69.7699 336.078 98.6835 340.905 112.943C345.731 127.203 349.769 136.247 349.769 136.247L347.656 148.853C341.952 138.545 337.115 127.783 333.192 116.678C326.63 98.1792 322.971 69.2815 322.971 69.2815L331.646 69.7699Z" fill="#D9D9D9" stroke="#727272" stroke-width="1.50459" stroke-miterlimit="10"/>
<path d="M293.034 97.4681L298.239 143.619L268.538 140.09L260.793 94.0962L293.034 97.4681Z" fill="#D9D9D9" stroke="#727272" stroke-width="1.50459" stroke-miterlimit="10"/>
<path d="M289.201 97.7062L298.665 143.18L268.759 142.408L256.803 97.328L289.201 97.7062Z" fill="#D9D9D9" stroke="#727272" stroke-width="1.50459" stroke-miterlimit="10"/>
<path d="M260.274 123.925C263.53 125.679 266.879 127.257 270.306 128.652C271.852 129.267 273.51 129.551 275.172 129.486C276.835 129.421 278.466 129.008 279.959 128.274C281.648 127.5 283.157 126.384 284.391 124.996C284.391 124.996 285.353 119.797 286.505 119.025C287.656 118.252 290.369 117.669 291.52 115.873C292.672 114.077 293.255 114.298 293.65 116.062C294.044 117.827 294.423 119.734 293.255 120.506C292.578 120.95 292.098 121.639 291.915 122.428C291.915 122.428 292.104 123.783 293.65 123.2C295.196 122.617 296.158 120.695 297.703 121.278C298.043 121.333 298.365 121.469 298.642 121.673C298.919 121.877 299.144 122.143 299.298 122.451C299.452 122.759 299.53 123.098 299.527 123.442C299.525 123.786 299.44 124.124 299.281 124.429C298.84 125.374 298.312 126.276 297.703 127.123C297.703 127.123 299.628 131.567 298.666 134.45C297.703 137.334 292.877 139.083 290.558 139.272C288.24 139.461 281.694 139.65 281.694 139.65C281.694 139.65 272.23 142.801 266.457 144.472C260.684 146.142 258.933 145.827 255.652 143.321C253.964 142.019 252.724 140.224 252.102 138.186C251.48 136.148 251.508 133.967 252.182 131.945C253.523 127.391 255.069 124.886 260.274 123.925Z" fill="#D9D9D9" stroke="#727272" stroke-width="1.50459" stroke-miterlimit="10"/>
<path d="M338.729 326.661C338.729 326.661 341.883 334.224 342.64 335.689C344.269 338.319 346.544 340.489 349.249 341.992C352.925 344.182 357.325 345.648 356.347 347.601C355.369 349.555 350.969 350.044 347.294 350.532C343.618 351.021 335.069 349.555 331.631 349.555C328.192 349.555 320.59 348.342 319.896 346.625C319.202 344.907 320.148 332.696 320.148 332.696C320.148 332.696 325.763 326.409 338.729 326.661Z" fill="#D9D9D9" stroke="#727272" stroke-width="1.50459" stroke-miterlimit="10"/>
<path d="M319.974 346.692C319.702 345.376 319.612 344.029 319.706 342.689L328.523 345.305C333.917 346.655 339.415 347.551 344.959 347.984C348.788 348.178 352.616 347.583 356.205 346.235C356.385 346.422 356.503 346.66 356.543 346.917C356.582 347.173 356.541 347.436 356.426 347.668C355.448 349.622 351.047 350.111 347.372 350.599C343.697 351.088 335.148 349.622 331.709 349.622C328.271 349.622 320.637 348.409 319.974 346.692Z" fill="#D9D9D9" stroke="#727272" stroke-width="1.50459" stroke-miterlimit="10"/>
<path d="M303.776 333.302C303.776 333.302 303.05 345.907 302.877 346.821C302.703 347.735 301.804 348.396 299.312 348.696C296.82 348.995 295.731 348.869 294.312 349.562C292.892 350.256 289.848 351.784 281.283 351.784C272.719 351.784 270.037 350.208 271.11 347.167C272.182 344.126 280.384 338.092 282.356 335.697C283.998 333.337 285.388 330.813 286.504 328.165C286.504 328.165 288.949 326.116 293.776 327.141C298.602 328.165 299.848 330.056 300.385 330.906C301.39 331.868 302.533 332.675 303.776 333.302Z" fill="#D9D9D9" stroke="#727272" stroke-width="1.50459" stroke-miterlimit="10"/>
<path d="M271.078 347.225C271.151 347.023 271.24 346.828 271.346 346.642C272.179 347.527 273.175 348.244 274.28 348.753C277.435 350.329 290.179 349.446 293.034 347.902C296.297 346.467 299.66 345.271 303.097 344.326C303.003 345.681 302.924 346.689 302.877 346.91C302.703 347.761 301.804 348.485 299.312 348.785C296.82 349.084 295.731 348.958 294.312 349.651C292.892 350.345 289.848 351.873 281.283 351.873C272.718 351.873 270.037 350.297 271.078 347.225Z" fill="#D9D9D9" stroke="#727272" stroke-width="1.50459" stroke-miterlimit="10"/>
<path d="M326.757 25.4763L338.429 24.7042V33.8273L326.757 33.0553C326.204 33.0553 325.747 31.3693 325.747 29.2737C325.747 27.178 326.283 25.4763 326.757 25.4763Z" fill="#D9D9D9" stroke="#727272" stroke-width="1.50459" stroke-miterlimit="10"/>
<path d="M323.555 24.5652H327.23C327.325 24.5658 327.419 24.5898 327.503 24.6351C327.587 24.6803 327.659 24.7455 327.712 24.8248C327.764 24.9041 327.797 24.9951 327.807 25.09C327.816 25.1848 327.802 25.2805 327.766 25.3688C327.364 26.6311 327.177 27.9521 327.214 29.2764C327.175 30.5956 327.362 31.9118 327.766 33.1683C327.802 33.2566 327.816 33.3523 327.807 33.4471C327.797 33.542 327.764 33.633 327.712 33.7123C327.659 33.7916 327.587 33.8568 327.503 33.902C327.419 33.9473 327.325 33.9713 327.23 33.9719H323.555C322.861 33.9719 322.293 31.8605 322.293 29.2449C322.293 26.6293 322.861 24.5652 323.555 24.5652Z" fill="#D9D9D9" stroke="#727272" stroke-width="1.50459" stroke-miterlimit="10"/>
<path d="M335.132 23.0685L360.479 21.808V36.7453L335.132 35.5005C334.217 35.5005 333.554 32.7116 333.554 29.2924C333.554 25.8732 334.169 23.0685 335.132 23.0685Z" fill="#D9D9D9" stroke="#727272" stroke-width="1.50459" stroke-miterlimit="10"/>
<path d="M358.493 29.2766C358.493 33.3891 359.392 36.7453 360.481 36.7453C361.569 36.7453 362.468 33.3891 362.468 29.2766C362.468 25.1642 361.585 21.808 360.481 21.808C359.376 21.808 358.493 25.1484 358.493 29.2766Z" fill="#D9D9D9" stroke="#727272" stroke-width="1.50459" stroke-miterlimit="10"/>
<path d="M322.324 25.4763L333.996 24.7042V33.8273L322.324 33.0553C321.772 33.0553 321.314 31.3693 321.314 29.2737C321.314 27.178 321.772 25.4763 322.324 25.4763Z" fill="#D9D9D9" stroke="#727272" stroke-width="1.50459" stroke-miterlimit="10"/>
<path d="M319.122 24.5652H322.797C322.892 24.5658 322.986 24.5898 323.07 24.6351C323.154 24.6803 323.226 24.7455 323.279 24.8248C323.332 24.9041 323.364 24.9951 323.374 25.09C323.383 25.1848 323.369 25.2805 323.333 25.3688C322.937 26.6322 322.756 27.9531 322.797 29.2764C322.754 30.5947 322.936 31.9106 323.333 33.1683C323.369 33.2566 323.383 33.3523 323.374 33.4471C323.364 33.542 323.332 33.633 323.279 33.7123C323.226 33.7916 323.154 33.8568 323.07 33.902C322.986 33.9473 322.892 33.9713 322.797 33.9719H319.122C318.428 33.9719 317.86 31.8605 317.86 29.2449C317.86 26.6293 318.396 24.5652 319.122 24.5652Z" fill="#D9D9D9" stroke="#727272" stroke-width="1.50459" stroke-miterlimit="10"/>
<path d="M330.701 23.0685L356.048 21.808V36.7453L330.701 35.5005C329.802 35.5005 329.123 32.7116 329.123 29.2924C329.123 25.8732 329.802 23.0685 330.701 23.0685Z" fill="#D9D9D9" stroke="#727272" stroke-width="1.50459" stroke-miterlimit="10"/>
<path d="M354.06 29.2766C354.06 33.3891 354.959 36.7453 356.048 36.7453C357.136 36.7453 358.035 33.3891 358.035 29.2766C358.035 25.1642 357.152 21.808 356.048 21.808C354.944 21.808 354.06 25.1484 354.06 29.2766Z" fill="#D9D9D9" stroke="#727272" stroke-width="1.50459" stroke-miterlimit="10"/>
<path d="M345.4 22.1677C345.4 22.1677 342.135 18.6539 340.921 18.6539C339.706 18.6539 337.766 21.8053 337.419 22.1677C337.072 22.5301 337.293 23.1288 338.618 23.2549C339.626 23.222 340.601 22.881 341.41 22.278L345.4 22.1677Z" fill="#D9D9D9" stroke="#727272" stroke-width="1.50459" stroke-miterlimit="10"/>
<path d="M340.921 18.6547C339.26 18.2275 337.557 17.9844 335.842 17.9299C334.864 18.1663 333.05 22.2788 333.413 22.8933C333.776 23.5078 337.42 22.1685 337.42 22.1685C337.42 22.1685 339.833 18.5287 340.921 18.6547Z" fill="#D9D9D9" stroke="#727272" stroke-width="1.50459" stroke-miterlimit="10"/>
<path d="M334.991 18.2923C334.991 18.2923 333.051 17.079 332.089 17.9299C331.127 18.7807 329.06 21.68 329.549 22.7672C330.038 23.8544 333.414 22.8932 333.414 22.8932C333.414 22.8932 334.171 18.6547 334.991 18.2923Z" fill="#D9D9D9" stroke="#727272" stroke-width="1.50459" stroke-miterlimit="10"/>
<path d="M331.126 18.6515C331.126 18.6515 328.697 17.6904 327.845 18.6515C326.993 19.6127 324.833 22.638 326.268 23.3786C327.703 24.1191 329.17 21.9289 329.17 21.9289L331.126 18.6515Z" fill="#D9D9D9" stroke="#727272" stroke-width="1.50459" stroke-miterlimit="10"/>
</g>
<defs>
<clipPath id="clip0_1_844">
<rect width="629" height="703" fill="white"/>
</clipPath>
</defs>
</svg>
