<svg width="60" height="61" viewBox="0 0 60 61" fill="none" xmlns="http://www.w3.org/2000/svg">
<rect x="-0.000976562" y="0.0390625" width="60" height="60" rx="30" fill="#83CD20"/>
<g clip-path="url(#clip0_1_1697)">
<path d="M44.5889 38.9781H42.04V25.8493C42.0402 25.7786 42.022 25.7091 41.9873 25.6475C41.9527 25.5859 41.9027 25.5344 41.8422 25.4978L30.2114 18.4616C30.1473 18.4228 30.0739 18.4023 29.999 18.4023C29.9242 18.4023 29.8507 18.4228 29.7867 18.4616L18.1558 25.4985C18.0954 25.5351 18.0454 25.5867 18.0107 25.6482C17.976 25.7098 17.9579 25.7793 17.958 25.85V38.9788H15.4092C15.3553 38.9788 15.3019 38.9894 15.2521 39.01C15.2023 39.0307 15.1571 39.0609 15.119 39.0991C15.0809 39.1372 15.0507 39.1825 15.0301 39.2323C15.0095 39.2821 14.999 39.3355 14.999 39.3894V41.2644C14.999 41.3732 15.0422 41.4775 15.1192 41.5544C15.1961 41.6313 15.3004 41.6746 15.4092 41.6746H44.5889C44.6976 41.6746 44.802 41.6313 44.8789 41.5544C44.9558 41.4775 44.999 41.3732 44.999 41.2644V39.3894C44.9992 39.3354 44.9887 39.282 44.9681 39.2321C44.9476 39.1822 44.9174 39.1368 44.8793 39.0986C44.8412 39.0604 44.7959 39.0301 44.7461 39.0094C44.6963 38.9887 44.6428 38.9781 44.5889 38.9781ZM18.7783 34.8191H26.0146V36.6685H18.7783V34.8191ZM26.835 30.5141C26.8355 30.0014 27.0394 29.5099 27.4019 29.1474C27.7644 28.785 28.2559 28.5811 28.7686 28.5805H29.5889V32.7674C29.5883 33.879 29.341 34.9766 28.8647 35.981C28.3885 36.9855 27.6952 37.8717 26.835 38.5757V30.5141ZM41.2197 36.669H33.9834V34.8191H41.2197V36.669ZM33.1631 38.5757C32.3028 37.8717 31.6095 36.9855 31.1332 35.9811C30.657 34.9766 30.4097 33.879 30.4092 32.7674V28.5805H31.2295C31.7421 28.5811 32.2336 28.785 32.5961 29.1474C32.9586 29.5099 33.1625 30.0014 33.1631 30.5141V38.5757ZM27.7392 38.8754C28.7787 37.9138 29.5564 36.7034 29.999 35.3582C30.4591 36.7507 31.2752 37.9989 32.3662 38.979H27.6318C27.6686 38.9441 27.7021 38.9092 27.7392 38.8754ZM33.9834 37.4893H41.2197V38.9781H33.9834V37.4893ZM29.999 19.2917L41.2197 26.0807V33.9988H33.9834V30.5141C33.9825 29.784 33.6921 29.084 33.1758 28.5677C32.6596 28.0515 31.9596 27.7611 31.2295 27.7602H28.7686C28.0384 27.761 27.3384 28.0514 26.8221 28.5677C26.3059 29.084 26.0155 29.784 26.0146 30.5141V33.9988H18.7783V26.0807L29.999 19.2917ZM18.7783 37.4893H26.0146V38.9781H18.7783V37.4893ZM44.1787 40.8531H15.8193V39.7984H44.1787V40.8531Z" fill="white"/>
<path d="M22.3961 32.5583C22.7851 32.5583 23.1653 32.443 23.4888 32.227C23.8122 32.0109 24.0643 31.7038 24.2132 31.3444C24.3621 30.9851 24.4011 30.5896 24.3252 30.2081C24.2494 29.8266 24.0621 29.4762 23.787 29.2011C23.512 28.926 23.1616 28.7387 22.7801 28.6628C22.3986 28.5869 22.0032 28.6258 21.6438 28.7747C21.2844 28.9235 20.9772 29.1756 20.7611 29.499C20.545 29.8224 20.4297 30.2027 20.4297 30.5916C20.4302 31.113 20.6376 31.6129 21.0062 31.9816C21.3749 32.3503 21.8747 32.5577 22.3961 32.5583ZM22.3961 29.4453C22.6228 29.4453 22.8445 29.5125 23.033 29.6384C23.2216 29.7643 23.3685 29.9433 23.4553 30.1528C23.5421 30.3623 23.5649 30.5928 23.5207 30.8151C23.4765 31.0375 23.3673 31.2418 23.207 31.4021C23.0467 31.5625 22.8424 31.6717 22.6201 31.7159C22.3977 31.7602 22.1672 31.7375 21.9577 31.6507C21.7482 31.564 21.5692 31.417 21.4432 31.2285C21.3172 31.04 21.25 30.8184 21.25 30.5916C21.2506 30.2878 21.3715 29.9966 21.5863 29.7818C21.8011 29.5669 22.0923 29.4459 22.3961 29.4453Z" fill="white"/>
<path d="M29.9991 26.4725C30.3881 26.4725 30.7684 26.3572 31.0918 26.141C31.4152 25.9249 31.6673 25.6177 31.8161 25.2583C31.9649 24.8989 32.0039 24.5035 31.9279 24.122C31.852 23.7404 31.6646 23.39 31.3895 23.115C31.1144 22.84 30.7639 22.6528 30.3824 22.5769C30.0008 22.5011 29.6054 22.5402 29.246 22.6891C28.8867 22.8381 28.5796 23.0903 28.3636 23.4138C28.1476 23.7373 28.0323 24.1176 28.0325 24.5066C28.0332 25.0279 28.2407 25.5276 28.6094 25.8961C28.978 26.2647 29.4778 26.472 29.9991 26.4725ZM29.9991 23.3596C30.2258 23.3596 30.4474 23.4268 30.6359 23.5527C30.8244 23.6786 30.9713 23.8576 31.0581 24.067C31.1449 24.2765 31.1676 24.5069 31.1235 24.7293C31.0793 24.9516 30.9702 25.1559 30.8099 25.3162C30.6497 25.4766 30.4455 25.5858 30.2232 25.6301C30.0009 25.6744 29.7704 25.6518 29.5609 25.5652C29.3514 25.4785 29.1724 25.3317 29.0463 25.1433C28.9203 24.9548 28.8529 24.7333 28.8528 24.5066C28.8532 24.2026 28.974 23.9112 29.1889 23.6962C29.4038 23.4812 29.6951 23.3601 29.9991 23.3596Z" fill="white"/>
<path d="M37.6012 32.5583C37.9901 32.5583 38.3704 32.443 38.6938 32.227C39.0173 32.0109 39.2694 31.7038 39.4183 31.3444C39.5672 30.9851 39.6061 30.5896 39.5303 30.2081C39.4544 29.8266 39.2671 29.4762 38.9921 29.2011C38.7171 28.926 38.3667 28.7387 37.9852 28.6628C37.6037 28.5869 37.2082 28.6258 36.8489 28.7747C36.4895 28.9235 36.1823 29.1756 35.9662 29.499C35.7501 29.8224 35.6348 30.2027 35.6348 30.5916C35.6353 31.113 35.8427 31.6129 36.2113 31.9816C36.58 32.3503 37.0798 32.5577 37.6012 32.5583ZM37.6012 29.4453C37.8279 29.4453 38.0496 29.5125 38.2381 29.6384C38.4266 29.7643 38.5736 29.9433 38.6604 30.1528C38.7472 30.3623 38.7699 30.5928 38.7257 30.8151C38.6815 31.0375 38.5724 31.2418 38.4121 31.4021C38.2518 31.5625 38.0475 31.6717 37.8251 31.7159C37.6028 31.7602 37.3723 31.7375 37.1628 31.6507C36.9533 31.564 36.7743 31.417 36.6483 31.2285C36.5223 31.04 36.4551 30.8184 36.4551 30.5916C36.4556 30.2878 36.5766 29.9966 36.7914 29.7818C37.0062 29.5669 37.2974 29.4459 37.6012 29.4453Z" fill="white"/>
</g>
<defs>
<clipPath id="clip0_1_1697">
<rect width="30" height="30" fill="white" transform="translate(14.999 15.0391)"/>
</clipPath>
</defs>
</svg>
