<svg width="60" height="61" viewBox="0 0 60 61" fill="none" xmlns="http://www.w3.org/2000/svg">
<rect x="-0.000976562" y="0.0390625" width="60" height="60" rx="30" fill="#83CD20"/>
<g clip-path="url(#clip0_1_1677)">
<path d="M43.1826 18.2031H16.8154C16.3339 18.2037 15.8722 18.3952 15.5317 18.7358C15.1911 19.0763 14.9996 19.538 14.999 20.0195V41.4634C14.9991 41.5722 15.0423 41.6765 15.1192 41.7534C15.1961 41.8303 15.3004 41.8735 15.4092 41.8736H44.5889C44.6976 41.8735 44.8019 41.8303 44.8788 41.7534C44.9557 41.6765 44.999 41.5722 44.999 41.4634V20.0195C44.9985 19.538 44.8069 19.0763 44.4664 18.7358C44.1259 18.3952 43.6642 18.2037 43.1826 18.2031ZM15.8193 20.0195C15.8196 19.7554 15.9247 19.5023 16.1114 19.3155C16.2982 19.1288 16.5513 19.0237 16.8154 19.0234H43.1826C43.4467 19.0237 43.6999 19.1288 43.8866 19.3155C44.0734 19.5023 44.1784 19.7554 44.1787 20.0195V23.743H15.8193V20.0195ZM44.1787 41.0533H15.8193V24.5634H44.1787V41.0533Z" fill="white"/>
<path d="M42.7137 20.0781H24.7871C24.6783 20.0781 24.574 20.1213 24.4971 20.1983C24.4202 20.2752 24.377 20.3795 24.377 20.4883V22.278C24.377 22.3867 24.4202 22.4911 24.4971 22.568C24.574 22.6449 24.6783 22.6881 24.7871 22.6881H42.7137C42.8225 22.6881 42.9268 22.6448 43.0037 22.5679C43.0806 22.491 43.1238 22.3867 43.1239 22.278V20.4883C43.1238 20.3795 43.0806 20.2752 43.0037 20.1983C42.9268 20.1214 42.8225 20.0782 42.7137 20.0781ZM42.3036 21.8678H25.1973V20.8984H42.3036V21.8678Z" fill="white"/>
<path d="M19.1592 20.0781H17.2842C17.1754 20.0782 17.0711 20.1214 16.9942 20.1983C16.9173 20.2752 16.8741 20.3795 16.874 20.4883V22.278C16.8741 22.3867 16.9173 22.491 16.9942 22.5679C17.0711 22.6448 17.1754 22.6881 17.2842 22.6881H19.1592C19.2679 22.6881 19.3722 22.6448 19.4491 22.5679C19.526 22.491 19.5693 22.3867 19.5693 22.278V20.4883C19.5693 20.3795 19.526 20.2752 19.4491 20.1983C19.3722 20.1214 19.2679 20.0782 19.1592 20.0781ZM18.749 21.8678H17.6943V20.8984H18.749V21.8678Z" fill="white"/>
<path d="M22.9102 20.0781H21.0352C20.9264 20.0782 20.8221 20.1214 20.7452 20.1983C20.6683 20.2752 20.6251 20.3795 20.625 20.4883V22.278C20.6251 22.3867 20.6683 22.491 20.7452 22.5679C20.8221 22.6448 20.9264 22.6881 21.0352 22.6881H22.9102C23.0189 22.6881 23.1233 22.6449 23.2002 22.568C23.2771 22.4911 23.3203 22.3867 23.3203 22.278V20.4883C23.3203 20.3795 23.2771 20.2752 23.2002 20.1983C23.1233 20.1213 23.0189 20.0781 22.9102 20.0781ZM22.5 21.8678H21.4453V20.8984H22.5V21.8678Z" fill="white"/>
<path d="M29.9991 39.1608C31.255 39.1608 32.4827 38.7885 33.527 38.0907C34.5713 37.393 35.3852 36.4013 35.8658 35.241C36.3465 34.0807 36.4723 32.804 36.2273 31.5722C35.9823 30.3404 35.3775 29.2089 34.4895 28.3209C33.6014 27.4328 32.47 26.828 31.2382 26.583C30.0065 26.3379 28.7297 26.4637 27.5694 26.9443C26.4091 27.4249 25.4173 28.2388 24.7196 29.283C24.0218 30.3273 23.6494 31.555 23.6494 32.8109C23.6513 34.4944 24.3208 36.1084 25.5112 37.2988C26.7016 38.4892 28.3156 39.1589 29.9991 39.1608ZM29.9991 27.2815C31.0928 27.2814 32.1619 27.6057 33.0713 28.2133C33.9807 28.8209 34.6894 29.6845 35.108 30.6949C35.5265 31.7053 35.6361 32.8172 35.4227 33.8898C35.2094 34.9625 34.6827 35.9478 33.9094 36.7211C33.136 37.4945 32.1507 38.0211 31.0781 38.2345C30.0054 38.4478 28.8936 38.3383 27.8831 37.9197C26.8727 37.5012 26.0091 36.7924 25.4015 35.883C24.794 34.9737 24.4697 33.9045 24.4697 32.8109C24.4714 31.3449 25.0545 29.9395 26.0911 28.9029C27.1277 27.8663 28.5331 27.2832 29.9991 27.2815Z" fill="white"/>
<path d="M27.1431 35.9755H32.8534C32.9622 35.9755 33.0664 35.9323 33.1434 35.8553C33.2203 35.7784 33.2635 35.6742 33.2636 35.5654V31.5353C33.2635 31.4266 33.2203 31.3223 33.1434 31.2454C33.0664 31.1685 32.9622 31.1252 32.8534 31.1252H32.08L31.8292 29.9645C31.8094 29.8728 31.7588 29.7906 31.6858 29.7316C31.6128 29.6727 31.5218 29.6406 31.4279 29.6406H28.5686C28.4749 29.6406 28.384 29.6728 28.3111 29.7316C28.2382 29.7904 28.1876 29.8725 28.1678 29.9641L27.917 31.1247H27.1436C27.0348 31.1248 26.9305 31.168 26.8536 31.2449C26.7767 31.3218 26.7335 31.4261 26.7334 31.5348V35.5654C26.7335 35.6741 26.7766 35.7783 26.8534 35.8552C26.9302 35.9321 27.0344 35.9754 27.1431 35.9755ZM27.5532 35.1552V33.6679H28.6314V33.7091C28.6314 33.8179 28.6746 33.9222 28.7515 33.9992C28.8284 34.0761 28.9327 34.1193 29.0415 34.1193C29.1503 34.1193 29.2546 34.0761 29.3315 33.9992C29.4085 33.9222 29.4517 33.8179 29.4517 33.7091V33.6679H30.5439V33.7091C30.5439 33.8179 30.5871 33.9222 30.664 33.9992C30.7409 34.0761 30.8452 34.1193 30.954 34.1193C31.0628 34.1193 31.1671 34.0761 31.244 33.9992C31.321 33.9222 31.3642 33.8179 31.3642 33.7091V33.6679H32.4423V35.1552H27.5532ZM28.8997 30.4609H31.0965L31.2402 31.1247H28.7561L28.8997 30.4609ZM31.7474 31.945H32.4432V32.8471H27.5532V31.9455L31.7474 31.945Z" fill="white"/>
</g>
<defs>
<clipPath id="clip0_1_1677">
<rect width="30" height="30" fill="white" transform="translate(14.999 15.0391)"/>
</clipPath>
</defs>
</svg>
